<svg width="71" height="68" viewBox="0 0 71 68" fill="none" xmlns="http://www.w3.org/2000/svg">
<path d="M35.097 12.0577C39.6616 12.8868 41.7364 -0.792828 46.5084 0.036239C50.658 4.38883 44.0187 13.7945 48.5832 15.9958C54.6001 18.8975 62.6918 9.77778 64.1442 13.094C66.0115 18.0684 55.6246 23.8719 56.26 26.7736C57.2131 31.1262 70.6591 29.6754 70.991 33.8207C71.406 39.0024 57.2974 36.3079 56.26 40.6605C55.2226 45.0131 66.219 52.0602 64.1442 54.9619C62.0694 57.8636 51.4879 50.8166 48.5832 52.0602C45.6785 53.3038 50.0356 65.947 46.5084 67.8124C42.9812 69.6778 39.0391 57.0346 35.097 56.2055C32.1923 55.5837 28.4577 68.8169 24.1006 67.8124C21.4033 67.1906 24.723 54.1328 22.4407 52.0602C20.1584 49.9875 7.70968 57.0346 6.67226 54.9619C5.63483 52.8892 14.349 42.7332 14.349 40.6605C14.349 38.5878 -0.797018 36.1006 0.0329017 33.8207C0.862821 31.5408 13.7266 29.0536 14.349 26.7736C14.9714 24.4937 5.2199 14.7522 6.67226 13.094C8.12461 11.4359 20.7809 17.8612 22.4407 15.9958C24.1006 14.1304 21.6108 0.036239 24.723 0.036239C27.8352 0.036239 30.5324 11.2286 35.097 12.0577Z" fill="#FFC961"/>
</svg>
