<svg width="158" height="158" viewBox="0 0 158 158" fill="none" xmlns="http://www.w3.org/2000/svg">
<path d="M78.6595 0.0844727C35.2148 0.0844727 0.00537109 35.3006 0.00537109 78.7536C0.00537109 122.207 35.2148 157.423 78.6595 157.423C122.104 157.423 157.314 122.207 157.314 78.7536C157.314 35.3006 122.087 0.0844727 78.6595 0.0844727ZM41.0946 39.8029C51.1096 29.7686 65.1201 23.5037 80.4392 23.5037C86.8948 23.5037 93.0713 24.7253 98.8464 26.7845L99.7188 24.4112C100.818 21.4445 103.557 19.4027 106.715 19.2282C109.856 19.0537 112.822 20.7639 114.235 23.591L120.028 35.1784L125.821 46.7833C126.798 48.7378 126.92 51.0239 126.17 53.0657C125.419 55.1075 123.832 56.7653 121.825 57.6204L109.891 62.6812L97.9741 67.742C95.0603 68.9636 91.6929 68.3528 89.4073 66.1714C87.1216 63.99 86.3539 60.6569 87.4357 57.6902L88.2731 55.4216C85.813 54.6014 83.1959 54.1477 80.4392 54.1477C73.9486 54.1477 68.2258 56.6431 63.7592 60.6569L56.6754 55.0202L46.5383 46.9578C43.991 44.9335 40.9202 43.8341 37.7621 43.6422C38.809 42.2984 39.8908 40.9896 41.0946 39.7855V39.8029ZM70.3893 133.881C33.1559 125.749 25.9501 93.6567 24.9556 88.0026L23.1061 88.2644C19.9655 88.7181 16.8773 87.2696 15.2197 84.5647C13.5622 81.8773 13.6669 78.4569 15.4814 75.8741L22.8967 65.2465L30.3294 54.6188C31.5857 52.8388 33.5398 51.6347 35.7033 51.3206C37.8494 51.0065 40.0652 51.6173 41.7751 52.961L51.8948 61.0408L62.0319 69.1206C64.492 71.0751 65.5737 74.3385 64.7363 77.3924C63.9162 80.4463 61.3514 82.6975 58.2283 83.1512L55.7681 83.5002C57.827 96.9724 71.2791 102.347 71.2791 102.347L64.3698 115.575C60.4616 126.709 70.3893 133.846 70.3893 133.846V133.881ZM119.766 118.507C116.8 121.474 113.45 124.074 109.873 126.308L110.536 128.053C111.653 130.984 110.903 134.335 108.635 136.534C106.366 138.715 102.999 139.361 100.085 138.157L88.1161 133.183L76.1645 128.21C74.1405 127.372 72.5528 125.714 71.7851 123.69C71.0174 121.666 71.1221 119.362 72.0817 117.408L77.7871 105.785L83.4925 94.1628C84.8883 91.3183 87.837 89.5732 90.995 89.7302C94.153 89.8873 96.9272 91.8942 98.0439 94.8434L98.5673 96.2395C102.807 91.7371 105.389 85.8387 105.407 79.1724C105.407 77.1306 105.075 75.1936 104.622 73.2914L112.909 69.7837L124.843 64.723C127.879 63.4141 130.374 61.2328 132.049 58.4581C134.632 64.88 136.08 71.8604 136.08 79.1549C136.08 94.4769 129.833 108.473 119.801 118.507H119.766Z" fill="white"/>
</svg>
