<svg width="399" height="112" viewBox="0 0 399 112" fill="none" xmlns="http://www.w3.org/2000/svg">
<path d="M384.021 111.999C381.757 111.999 379.722 111.628 377.917 110.885C376.112 110.106 374.573 109.045 373.299 107.7C372.061 106.355 371.105 104.816 370.433 103.082C369.76 101.348 369.424 99.5255 369.424 97.6146C369.424 95.6684 369.76 93.8282 370.433 92.0943C371.105 90.3603 372.061 88.821 373.299 87.4763C374.573 86.1316 376.112 85.0877 377.917 84.3445C379.722 83.566 381.757 83.1768 384.021 83.1768C386.286 83.1768 388.303 83.566 390.073 84.3445C391.877 85.0877 393.417 86.1316 394.691 87.4763C395.965 88.821 396.92 90.3603 397.557 92.0943C398.229 93.8282 398.566 95.6684 398.566 97.6146C398.566 99.5255 398.229 101.348 397.557 103.082C396.92 104.816 395.965 106.355 394.691 107.7C393.452 109.045 391.93 110.106 390.126 110.885C388.321 111.628 386.286 111.999 384.021 111.999ZM376.749 97.6146C376.749 99.2424 377.068 100.693 377.705 101.967C378.342 103.206 379.209 104.179 380.306 104.887C381.403 105.594 382.641 105.948 384.021 105.948C385.366 105.948 386.587 105.594 387.684 104.887C388.781 104.144 389.648 103.153 390.285 101.914C390.957 100.64 391.293 99.1894 391.293 97.5616C391.293 95.9692 390.957 94.536 390.285 93.262C389.648 91.9881 388.781 90.9973 387.684 90.2895C386.587 89.5818 385.366 89.2279 384.021 89.2279C382.641 89.2279 381.403 89.5995 380.306 90.3426C379.209 91.0504 378.342 92.0412 377.705 93.3151C377.068 94.5537 376.749 95.9868 376.749 97.6146Z" fill="#D1FD38"/>
<path d="M357.647 111.469V83.6553H364.76V111.469H357.647ZM357.647 79.7804V72.7207H364.76V79.7804H357.647Z" fill="#D1FD38"/>
<path d="M340.637 111.999C338.372 111.999 336.337 111.628 334.533 110.885C332.728 110.106 331.189 109.045 329.915 107.7C328.641 106.32 327.65 104.763 326.942 103.029C326.27 101.295 325.934 99.4725 325.934 97.5616C325.934 94.9429 326.517 92.5543 327.685 90.3957C328.888 88.2017 330.587 86.4501 332.781 85.1407C334.975 83.8314 337.576 83.1768 340.584 83.1768C343.592 83.1768 346.175 83.8314 348.334 85.1407C350.492 86.4501 352.102 88.1663 353.164 90.2895L346.21 92.4128C345.609 91.3865 344.813 90.608 343.822 90.0772C342.831 89.511 341.734 89.2279 340.531 89.2279C339.186 89.2279 337.947 89.5818 336.815 90.2895C335.718 90.9619 334.851 91.935 334.214 93.209C333.577 94.4475 333.259 95.8984 333.259 97.5616C333.259 99.1894 333.577 100.64 334.214 101.914C334.887 103.153 335.771 104.144 336.868 104.887C337.965 105.594 339.186 105.948 340.531 105.948C341.38 105.948 342.176 105.807 342.919 105.524C343.698 105.241 344.388 104.851 344.989 104.356C345.591 103.86 346.033 103.294 346.317 102.657L353.27 104.781C352.633 106.161 351.695 107.399 350.457 108.496C349.254 109.593 347.82 110.46 346.157 111.097C344.529 111.699 342.689 111.999 340.637 111.999Z" fill="#D1FD38"/>
<path d="M314.156 111.469V83.6553H321.269V111.469H314.156ZM314.156 79.7804V72.7207H321.269V79.7804H314.156Z" fill="#D1FD38"/>
<path d="M292.456 111.469L282.212 83.6553H289.59L296.597 104.994L303.656 83.6553H310.398L300.206 111.469H292.456Z" fill="#D1FD38"/>
<path d="M281.006 89.8131C278.847 89.8131 276.919 90.2377 275.22 91.087C273.522 91.9009 272.301 93.0864 271.558 94.6434V111.47H264.445V83.6557H270.974V89.6008C271.965 87.6899 273.221 86.1859 274.742 85.0889C276.264 83.9919 277.874 83.3903 279.573 83.2842C279.962 83.2842 280.263 83.2842 280.475 83.2842C280.687 83.2842 280.864 83.3019 281.006 83.3373V89.8131Z" fill="#D1FD38"/>
<path d="M245.568 111.999C243.338 111.999 241.321 111.628 239.517 110.885C237.712 110.106 236.172 109.062 234.899 107.753C233.625 106.408 232.634 104.887 231.926 103.188C231.254 101.454 230.917 99.6317 230.917 97.7208C230.917 95.0668 231.501 92.6428 232.669 90.4488C233.872 88.2548 235.571 86.5031 237.765 85.1938C239.994 83.8491 242.613 83.1768 245.621 83.1768C248.664 83.1768 251.265 83.8491 253.424 85.1938C255.582 86.5031 257.228 88.2548 258.36 90.4488C259.528 92.6074 260.112 94.9429 260.112 97.4554C260.112 97.8801 260.094 98.3224 260.059 98.7824C260.023 99.2071 259.988 99.5609 259.952 99.844H238.455C238.596 101.26 239.003 102.498 239.676 103.56C240.383 104.621 241.268 105.435 242.33 106.001C243.427 106.532 244.595 106.798 245.833 106.798C247.249 106.798 248.576 106.461 249.814 105.789C251.088 105.081 251.955 104.161 252.415 103.029L258.519 104.727C257.847 106.143 256.874 107.399 255.6 108.496C254.361 109.593 252.893 110.46 251.194 111.097C249.496 111.699 247.62 111.999 245.568 111.999ZM238.296 95.3322H252.84C252.698 93.9167 252.291 92.6959 251.619 91.6696C250.982 90.608 250.133 89.7941 249.071 89.2279C248.009 88.6264 246.824 88.3256 245.515 88.3256C244.241 88.3256 243.073 88.6264 242.011 89.2279C240.985 89.7941 240.136 90.608 239.463 91.6696C238.826 92.6959 238.437 93.9167 238.296 95.3322Z" fill="#D1FD38"/>
<path d="M223.259 83.6559C223.011 83.4082 222.551 83.0721 221.879 82.6474C221.242 82.2228 220.446 81.8158 219.49 81.4266C218.57 81.0373 217.562 80.7011 216.465 80.418C215.368 80.0996 214.253 79.9403 213.121 79.9403C211.139 79.9403 209.635 80.3119 208.609 81.055C207.618 81.7981 207.123 82.842 207.123 84.1868C207.123 85.213 207.441 86.0269 208.078 86.6285C208.715 87.23 209.671 87.7431 210.944 88.1678C212.218 88.5924 213.811 89.0525 215.722 89.5479C218.199 90.1495 220.34 90.8926 222.144 91.7773C223.985 92.6265 225.382 93.7589 226.338 95.1744C227.329 96.5545 227.824 98.3946 227.824 100.695C227.824 102.712 227.452 104.446 226.709 105.897C225.966 107.312 224.94 108.462 223.631 109.347C222.321 110.232 220.835 110.886 219.172 111.311C217.509 111.7 215.739 111.895 213.864 111.895C211.988 111.895 210.113 111.7 208.237 111.311C206.362 110.922 204.557 110.373 202.823 109.665C201.089 108.922 199.497 108.038 198.046 107.011L201.284 100.695C201.602 101.013 202.168 101.438 202.982 101.969C203.796 102.464 204.787 102.977 205.955 103.508C207.123 104.003 208.397 104.428 209.777 104.782C211.157 105.136 212.555 105.313 213.97 105.313C215.952 105.313 217.456 104.977 218.482 104.304C219.508 103.632 220.021 102.676 220.021 101.438C220.021 100.306 219.614 99.4208 218.8 98.7839C217.986 98.1469 216.854 97.5984 215.403 97.1384C213.952 96.643 212.236 96.1122 210.254 95.546C207.883 94.8736 205.902 94.1305 204.309 93.3166C202.717 92.4673 201.532 91.4057 200.753 90.1318C199.974 88.8578 199.585 87.2654 199.585 85.3545C199.585 82.7713 200.187 80.6127 201.39 78.8787C202.629 77.1094 204.292 75.7823 206.38 74.8977C208.467 73.9776 210.785 73.5176 213.333 73.5176C215.102 73.5176 216.766 73.7122 218.323 74.1015C219.915 74.4907 221.401 75.0038 222.781 75.6408C224.161 76.2778 225.4 76.9678 226.497 77.7109L223.259 83.6559Z" fill="#D1FD38"/>
<path d="M181.18 111.469H174.067V95.863C174.067 93.6336 173.678 92.0058 172.899 90.9796C172.121 89.9534 171.041 89.4403 169.661 89.4403C168.706 89.4403 167.733 89.688 166.742 90.1834C165.786 90.6788 164.919 91.3688 164.141 92.2535C163.362 93.1028 162.796 94.0936 162.442 95.226V111.469H155.33V83.6545H161.752V88.8033C162.46 87.6001 163.362 86.5916 164.459 85.7777C165.556 84.9284 166.813 84.2914 168.228 83.8668C169.679 83.4068 171.201 83.1768 172.793 83.1768C174.527 83.1768 175.943 83.4952 177.04 84.1322C178.172 84.7338 179.021 85.5654 179.587 86.627C180.189 87.6532 180.596 88.821 180.808 90.1303C181.056 91.4396 181.18 92.7666 181.18 94.1113V111.469Z" fill="#D1FD38"/>
<path d="M136.452 111.999C134.223 111.999 132.206 111.628 130.401 110.885C128.596 110.106 127.057 109.062 125.783 107.753C124.509 106.408 123.518 104.887 122.81 103.188C122.138 101.454 121.802 99.6317 121.802 97.7208C121.802 95.0668 122.386 92.6428 123.553 90.4488C124.757 88.2548 126.455 86.5031 128.649 85.1938C130.879 83.8491 133.497 83.1768 136.505 83.1768C139.548 83.1768 142.149 83.8491 144.308 85.1938C146.466 86.5031 148.112 88.2548 149.244 90.4488C150.412 92.6074 150.996 94.9429 150.996 97.4554C150.996 97.8801 150.978 98.3224 150.943 98.7824C150.908 99.2071 150.872 99.5609 150.837 99.844H129.339C129.481 101.26 129.888 102.498 130.56 103.56C131.268 104.621 132.152 105.435 133.214 106.001C134.311 106.532 135.479 106.798 136.717 106.798C138.133 106.798 139.46 106.461 140.698 105.789C141.972 105.081 142.839 104.161 143.299 103.029L149.404 104.727C148.731 106.143 147.758 107.399 146.484 108.496C145.246 109.593 143.777 110.46 142.079 111.097C140.38 111.699 138.504 111.999 136.452 111.999ZM129.18 95.3322H143.724C143.582 93.9167 143.175 92.6959 142.503 91.6696C141.866 90.608 141.017 89.7941 139.955 89.2279C138.894 88.6264 137.708 88.3256 136.399 88.3256C135.125 88.3256 133.957 88.6264 132.896 89.2279C131.869 89.7941 131.02 90.608 130.348 91.6696C129.711 92.6959 129.321 93.9167 129.18 95.3322Z" fill="#D1FD38"/>
<path d="M308.772 50.1601C308.772 48.3554 309.267 46.7807 310.258 45.436C311.284 44.0559 312.7 42.9943 314.504 42.2511C316.309 41.508 318.379 41.1364 320.715 41.1364C321.883 41.1364 323.068 41.2249 324.271 41.4018C325.474 41.5788 326.518 41.8619 327.403 42.2511V40.7649C327.403 38.9955 326.872 37.6331 325.811 36.6777C324.784 35.7222 323.245 35.2445 321.193 35.2445C319.671 35.2445 318.22 35.5099 316.84 36.0407C315.46 36.5715 314.009 37.35 312.487 38.3763L310.205 33.7052C312.045 32.502 313.921 31.5997 315.831 30.9981C317.778 30.3965 319.812 30.0957 321.936 30.0957C325.899 30.0957 328.978 31.0865 331.172 33.0682C333.401 35.0499 334.516 37.8808 334.516 41.5611V50.4255C334.516 51.1687 334.64 51.6995 334.887 52.0179C335.17 52.3364 335.613 52.531 336.214 52.6018V58.3876C335.577 58.4938 334.993 58.5822 334.463 58.653C333.967 58.7238 333.543 58.7592 333.189 58.7592C331.773 58.7592 330.694 58.4407 329.951 57.8037C329.243 57.1667 328.801 56.3882 328.624 55.4682L328.465 54.035C327.261 55.592 325.757 56.7952 323.953 57.6445C322.148 58.4938 320.308 58.9184 318.432 58.9184C316.592 58.9184 314.929 58.5468 313.443 57.8037C311.992 57.0252 310.842 55.9813 309.993 54.672C309.179 53.3273 308.772 51.8233 308.772 50.1601ZM326.076 51.5933C326.465 51.1687 326.784 50.744 327.031 50.3194C327.279 49.8947 327.403 49.5055 327.403 49.1516V46.3383C326.554 45.9845 325.634 45.7191 324.643 45.5421C323.652 45.3298 322.714 45.2236 321.83 45.2236C319.989 45.2236 318.468 45.6306 317.265 46.4445C316.097 47.223 315.513 48.2669 315.513 49.5762C315.513 50.284 315.708 50.9563 316.097 51.5933C316.486 52.2303 317.052 52.7434 317.795 53.1326C318.539 53.5219 319.423 53.7165 320.449 53.7165C321.511 53.7165 322.555 53.5219 323.581 53.1326C324.607 52.708 325.439 52.1949 326.076 51.5933Z" fill="#D1FD38"/>
<path d="M297.153 58.3884V30.5742H304.266V58.3884H297.153ZM297.153 26.6994V19.6396H304.266V26.6994H297.153Z" fill="#D1FD38"/>
<path d="M280.144 58.9184C277.879 58.9184 275.844 58.5468 274.039 57.8037C272.235 57.0252 270.695 55.9636 269.421 54.6189C268.148 53.2388 267.157 51.6818 266.449 49.9478C265.777 48.2138 265.44 46.3914 265.44 44.4805C265.44 41.8619 266.024 39.4733 267.192 37.3146C268.395 35.1207 270.094 33.369 272.288 32.0597C274.482 30.7504 277.083 30.0957 280.091 30.0957C283.099 30.0957 285.682 30.7504 287.84 32.0597C289.999 33.369 291.609 35.0853 292.671 37.2085L285.717 39.3317C285.116 38.3055 284.319 37.527 283.329 36.9962C282.338 36.43 281.241 36.1469 280.038 36.1469C278.693 36.1469 277.454 36.5007 276.322 37.2085C275.225 37.8808 274.358 38.854 273.721 40.1279C273.084 41.3665 272.766 42.8173 272.766 44.4805C272.766 46.1083 273.084 47.5592 273.721 48.8331C274.393 50.0717 275.278 51.0625 276.375 51.8056C277.472 52.5134 278.693 52.8672 280.038 52.8672C280.887 52.8672 281.683 52.7257 282.426 52.4426C283.205 52.1595 283.895 51.7702 284.496 51.2748C285.098 50.7794 285.54 50.2132 285.823 49.5762L292.777 51.6995C292.14 53.0795 291.202 54.3181 289.964 55.4151C288.76 56.5121 287.327 57.3791 285.664 58.016C284.036 58.6176 282.196 58.9184 280.144 58.9184Z" fill="#D1FD38"/>
<path d="M261.007 58.3876H253.895V42.7819C253.895 40.5526 253.505 38.9248 252.727 37.8985C251.948 36.8723 250.869 36.3592 249.489 36.3592C248.534 36.3592 247.56 36.6069 246.57 37.1023C245.614 37.5977 244.747 38.2878 243.969 39.1725C243.19 40.0218 242.624 41.0126 242.27 42.145V58.3876H235.157V30.5734H241.58V35.7222C242.288 34.5191 243.19 33.5105 244.287 32.6966C245.384 31.8474 246.64 31.2104 248.056 30.7857C249.507 30.3257 251.028 30.0957 252.621 30.0957C254.355 30.0957 255.77 30.4142 256.867 31.0512C258 31.6527 258.849 32.4843 259.415 33.5459C260.017 34.5722 260.424 35.7399 260.636 37.0492C260.884 38.3586 261.007 39.6856 261.007 41.0303V58.3876Z" fill="#D1FD38"/>
<path d="M216.28 58.9184C214.051 58.9184 212.034 58.5468 210.229 57.8037C208.424 57.0252 206.885 55.9813 205.611 54.672C204.337 53.3273 203.346 51.8056 202.638 50.107C201.966 48.3731 201.63 46.5507 201.63 44.6398C201.63 41.9857 202.214 39.5617 203.382 37.3677C204.585 35.1737 206.283 33.4221 208.477 32.1128C210.707 30.7681 213.325 30.0957 216.333 30.0957C219.376 30.0957 221.977 30.7681 224.136 32.1128C226.295 33.4221 227.94 35.1737 229.072 37.3677C230.24 39.5263 230.824 41.8619 230.824 44.3744C230.824 44.799 230.806 45.2413 230.771 45.7014C230.736 46.126 230.7 46.4799 230.665 46.763H209.167C209.309 48.1785 209.716 49.417 210.388 50.4786C211.096 51.5402 211.981 52.3541 213.042 52.9203C214.139 53.4511 215.307 53.7165 216.545 53.7165C217.961 53.7165 219.288 53.3803 220.527 52.708C221.8 52.0002 222.667 51.0802 223.127 49.9478L229.232 51.6464C228.559 53.0619 227.586 54.3181 226.312 55.4151C225.074 56.5121 223.605 57.3791 221.907 58.016C220.208 58.6176 218.333 58.9184 216.28 58.9184ZM209.008 42.2511H223.552C223.411 40.8357 223.004 39.6148 222.331 38.5886C221.694 37.527 220.845 36.7131 219.783 36.1469C218.722 35.5453 217.536 35.2445 216.227 35.2445C214.953 35.2445 213.785 35.5453 212.724 36.1469C211.697 36.7131 210.848 37.527 210.176 38.5886C209.539 39.6148 209.15 40.8357 209.008 42.2511Z" fill="#D1FD38"/>
<path d="M186.481 19.6396H193.594V49.4709C193.594 50.7448 193.807 51.6118 194.231 52.0718C194.656 52.4965 195.24 52.7088 195.983 52.7088C196.549 52.7088 197.133 52.638 197.735 52.4965C198.336 52.3549 198.867 52.178 199.327 51.9657L200.282 57.3799C199.327 57.8399 198.212 58.1938 196.938 58.4415C195.664 58.6892 194.514 58.813 193.488 58.813C191.259 58.813 189.525 58.2292 188.286 57.0614C187.083 55.8582 186.481 54.1596 186.481 51.9657V19.6396Z" fill="#D1FD38"/>
<path d="M167.658 58.9184C165.428 58.9184 163.411 58.5468 161.606 57.8037C159.802 57.0252 158.262 55.9813 156.988 54.672C155.714 53.3273 154.724 51.8056 154.016 50.107C153.344 48.3731 153.007 46.5507 153.007 44.6398C153.007 41.9857 153.591 39.5617 154.759 37.3677C155.962 35.1737 157.661 33.4221 159.855 32.1128C162.084 30.7681 164.703 30.0957 167.711 30.0957C170.754 30.0957 173.355 30.7681 175.513 32.1128C177.672 33.4221 179.318 35.1737 180.45 37.3677C181.618 39.5263 182.202 41.8619 182.202 44.3744C182.202 44.799 182.184 45.2413 182.149 45.7014C182.113 46.126 182.078 46.4799 182.042 46.763H160.545C160.686 48.1785 161.093 49.417 161.766 50.4786C162.473 51.5402 163.358 52.3541 164.42 52.9203C165.517 53.4511 166.684 53.7165 167.923 53.7165C169.338 53.7165 170.665 53.3803 171.904 52.708C173.178 52.0002 174.045 51.0802 174.505 49.9478L180.609 51.6464C179.937 53.0619 178.964 54.3181 177.69 55.4151C176.451 56.5121 174.983 57.3791 173.284 58.016C171.585 58.6176 169.71 58.9184 167.658 58.9184ZM160.386 42.2511H174.93C174.788 40.8357 174.381 39.6148 173.709 38.5886C173.072 37.527 172.222 36.7131 171.161 36.1469C170.099 35.5453 168.914 35.2445 167.604 35.2445C166.331 35.2445 165.163 35.5453 164.101 36.1469C163.075 36.7131 162.226 37.527 161.553 38.5886C160.916 39.6148 160.527 40.8357 160.386 42.2511Z" fill="#D1FD38"/>
<path d="M138.008 58.9184C135.744 58.9184 133.709 58.5468 131.904 57.8037C130.099 57.0252 128.56 55.9636 127.286 54.6189C126.012 53.2388 125.021 51.6818 124.314 49.9478C123.641 48.2138 123.305 46.3914 123.305 44.4805C123.305 41.8619 123.889 39.4733 125.057 37.3146C126.26 35.1207 127.959 33.369 130.153 32.0597C132.347 30.7504 134.947 30.0957 137.955 30.0957C140.963 30.0957 143.547 30.7504 145.705 32.0597C147.864 33.369 149.474 35.0853 150.535 37.2085L143.582 39.3317C142.98 38.3055 142.184 37.527 141.193 36.9962C140.202 36.43 139.105 36.1469 137.902 36.1469C136.558 36.1469 135.319 36.5007 134.187 37.2085C133.09 37.8808 132.223 38.854 131.586 40.1279C130.949 41.3665 130.63 42.8173 130.63 44.4805C130.63 46.1083 130.949 47.5592 131.586 48.8331C132.258 50.0717 133.143 51.0625 134.24 51.8056C135.337 52.5134 136.558 52.8672 137.902 52.8672C138.752 52.8672 139.548 52.7257 140.291 52.4426C141.069 52.1595 141.759 51.7702 142.361 51.2748C142.963 50.7794 143.405 50.2132 143.688 49.5762L150.642 51.6995C150.005 53.0795 149.067 54.3181 147.828 55.4151C146.625 56.5121 145.192 57.3791 143.529 58.016C141.901 58.6176 140.061 58.9184 138.008 58.9184Z" fill="#D1FD38"/>
<path d="M102.718 30.5742L108.557 39.2794L108.982 40.2349L109.513 39.2794L115.299 30.5742H122.783L113.122 44.4282L122.942 58.3884H115.458L109.46 49.7363L108.982 48.8339L108.557 49.7363L102.612 58.3884H95.1279L104.948 44.5875L95.2872 30.5742H102.718Z" fill="#D1FD38"/>
<g clip-path="url(#clip0_114_38)">
<path d="M77.8649 19.151L73.83 11.0943L69.7952 3.04408C68.813 1.0833 66.7469 -0.109563 64.5574 0.00907671C62.3572 0.129873 60.4361 1.54923 59.6789 3.60277L59.0926 5.1839C55.0664 3.76023 50.7416 2.97074 46.2481 2.9729C35.5801 2.96859 25.8229 7.3151 18.8415 14.2846C18.0085 15.1172 17.2492 16.0103 16.5244 16.9357C18.7376 17.0694 20.8686 17.8654 22.6383 19.2718L28.5576 23.972C32.9905 19.6902 39.0287 17.0478 45.6878 17.0478C55.0512 17.0478 63.1945 22.2593 67.3591 29.932L75.0783 26.6684C76.4759 26.0774 77.5814 24.9276 78.105 23.504C78.6329 22.0824 78.542 20.4948 77.8649 19.1445V19.151Z" fill="#D1FD38"/>
<path d="M35.4332 74.8985C34.4467 72.8104 33.9361 70.1033 35.0546 66.9281L35.6085 65.869C35.615 65.856 35.6193 65.8409 35.6258 65.828L35.6345 65.8194L35.6388 65.8129L36.3679 64.3331C27.3917 60.6683 21.0657 51.8739 21.0657 41.6062C21.0657 36.6039 22.5693 31.9533 25.146 28.0727L19.3155 23.435C18.1256 22.4945 16.5852 22.0738 15.0881 22.2917C13.5845 22.5096 12.2194 23.3444 11.3475 24.5782L6.17035 31.9554L0.997529 39.3326C-0.261602 41.1273 -0.335159 43.5066 0.820126 45.3703C1.97541 47.2405 4.13454 48.2521 6.3153 47.935L7.60039 47.7495C8.33164 51.8437 13.4504 73.9947 39.2496 79.616C39.2496 79.616 38.726 79.2385 38.0207 78.531C36.9217 77.5215 36.0433 76.292 35.4354 74.9007L35.4332 74.8985Z" fill="#D1FD38"/>
<path d="M85.0002 41.6055C85.0002 36.5363 84.0006 31.6765 82.205 27.2178C81.0324 29.1462 79.2865 30.6713 77.1706 31.5729L69.3735 34.8711C69.9836 37.0109 70.319 39.2694 70.319 41.6033C70.319 55.1649 59.294 66.1573 45.6923 66.1573C44.2926 66.1573 42.921 66.0344 41.5861 65.8122L40.4287 68.1612C39.7601 69.5224 39.6866 71.1143 40.2188 72.5272C40.7553 73.9422 41.863 75.0876 43.2671 75.6722L51.6029 79.13L59.9387 82.5791C61.9702 83.4247 64.311 82.9761 65.8947 81.4575C67.4718 79.9324 67.9954 77.6028 67.2209 75.5622L66.7709 74.3693C69.274 72.8162 71.5911 71 73.6528 68.9356C80.6473 61.9683 85.0023 52.2442 85.0023 41.6076L85.0002 41.6055Z" fill="#D1FD38"/>
<path d="M45.7548 59.4917C42.9813 59.4917 40.4695 59.0193 38.2238 58.0745C35.976 57.1319 34.0613 55.8462 32.4755 54.2198C30.8897 52.5955 29.6674 50.7081 28.8063 48.5553C27.9474 46.4026 27.519 44.142 27.519 41.7692C27.519 39.3964 27.9366 36.9934 28.7738 34.8191C29.6111 32.6447 30.8226 30.7336 32.4085 29.0877C33.9943 27.4397 35.9219 26.1347 38.1892 25.1683C40.4565 24.2019 43.0007 23.7188 45.8219 23.7188C48.643 23.7188 51.1613 24.2019 53.3875 25.1683C55.6115 26.1347 57.5045 27.4311 59.0709 29.0554C60.6329 30.6796 61.8228 32.5692 62.6384 34.7198C63.4519 36.8726 63.8608 39.1116 63.8608 41.4391C63.8608 42.0108 63.8499 42.5587 63.8283 43.0871C63.8045 43.6135 63.7504 44.0535 63.6617 44.4051H36.9041C37.0361 45.7662 37.3671 46.9742 37.895 48.0268C38.4229 49.0795 39.1043 49.9812 39.9438 50.7275C40.781 51.4739 41.7265 52.0455 42.7844 52.4402C43.8423 52.835 44.9435 53.0334 46.088 53.0334C47.849 53.0334 49.5127 52.6042 51.0769 51.7478C52.6411 50.8914 53.7077 49.7611 54.281 48.3547L61.8812 50.4622C60.6026 53.0981 58.5668 55.2617 55.7673 56.9507C52.9699 58.6418 49.6339 59.4874 45.757 59.4874L45.7548 59.4917ZM54.7418 38.6738C54.5211 36.0831 53.5627 34.008 51.8687 32.4484C50.1704 30.891 48.113 30.1102 45.6899 30.1102C44.5 30.1102 43.388 30.3194 42.3539 30.7357C41.3176 31.1542 40.4046 31.7344 39.6106 32.4808C38.8188 33.2293 38.1676 34.1266 37.6613 35.1815C37.1551 36.2341 36.8587 37.3989 36.77 38.6738H54.7418Z" fill="#D1FD38"/>
</g>
<defs>
<clipPath id="clip0_114_38">
<rect width="85" height="83" fill="white"/>
</clipPath>
</defs>
</svg>
