<svg width="942" height="211" viewBox="0 0 942 211" fill="none" xmlns="http://www.w3.org/2000/svg">
<g clip-path="url(#clip0_127_8)">
<path d="M408.659 50.0845C365.215 50.0845 330.005 85.3006 330.005 128.754C330.005 172.207 365.215 207.423 408.659 207.423C452.104 207.423 487.314 172.207 487.314 128.754C487.314 85.3006 452.087 50.0845 408.659 50.0845ZM371.095 89.8029C381.11 79.7686 395.12 73.5037 410.439 73.5037C416.895 73.5037 423.071 74.7253 428.846 76.7845L429.719 74.4112C430.818 71.4445 433.557 69.4027 436.715 69.2282C439.856 69.0537 442.822 70.7639 444.235 73.591L450.028 85.1784L455.821 96.7833C456.798 98.7378 456.92 101.024 456.17 103.066C455.419 105.107 453.832 106.765 451.825 107.62L439.891 112.681L427.974 117.742C425.06 118.964 421.693 118.353 419.407 116.171C417.122 113.99 416.354 110.657 417.436 107.69L418.273 105.422C415.813 104.601 413.196 104.148 410.439 104.148C403.949 104.148 398.226 106.643 393.759 110.657L386.675 105.02L376.538 96.9578C373.991 94.9335 370.92 93.8341 367.762 93.6422C368.809 92.2984 369.891 90.9896 371.095 89.7855V89.8029ZM400.389 183.881C363.156 175.749 355.95 143.657 354.956 138.003L353.106 138.264C349.966 138.718 346.877 137.27 345.22 134.565C343.562 131.877 343.667 128.457 345.481 125.874L352.897 115.246L360.329 104.619C361.586 102.839 363.54 101.635 365.703 101.321C367.849 101.006 370.065 101.617 371.775 102.961L381.895 111.041L392.032 119.121C394.492 121.075 395.574 124.338 394.736 127.392C393.916 130.446 391.351 132.697 388.228 133.151L385.768 133.5C387.827 146.972 401.279 152.347 401.279 152.347L394.37 165.575C390.462 176.709 400.389 183.846 400.389 183.846V183.881ZM449.766 168.507C446.8 171.474 443.45 174.074 439.873 176.308L440.536 178.053C441.653 180.984 440.903 184.335 438.635 186.534C436.366 188.715 432.999 189.361 430.085 188.157L418.116 183.183L406.164 178.21C404.141 177.372 402.553 175.714 401.785 173.69C401.017 171.666 401.122 169.362 402.082 167.408L407.787 155.785L413.493 144.163C414.888 141.318 417.837 139.573 420.995 139.73C424.153 139.887 426.927 141.894 428.044 144.843L428.567 146.239C432.807 141.737 435.389 135.839 435.407 129.172C435.407 127.131 435.075 125.194 434.622 123.291L442.909 119.784L454.843 114.723C457.879 113.414 460.374 111.233 462.049 108.458C464.632 114.88 466.08 121.86 466.08 129.155C466.08 144.477 459.833 158.473 449.801 168.507H449.766Z" fill="white"/>
<path d="M501.359 80.5887V59.0018H526.396V36.8391C526.396 24.7455 529.886 15.5837 536.9 9.35373C543.896 3.12373 554.121 0 567.555 0C569.858 0 572.493 0.191961 575.477 0.575883C578.443 0.959805 581.095 1.53569 583.398 2.30353V23.6112C581.287 22.8434 578.984 22.3198 576.489 22.0232C573.994 21.7439 571.69 21.5869 569.579 21.5869C563.63 21.5869 559.023 22.7386 555.761 25.0422C552.498 27.3457 550.875 31.7608 550.875 38.2875V59.0193H579.664V80.6061H550.875V207.841H526.414V80.5887H501.376H501.359Z" fill="white"/>
<path d="M726.137 207.266C721.915 209.761 716.07 211 708.585 211C702.251 211 697.226 209.22 693.475 205.678C689.741 202.135 687.857 196.324 687.857 188.261C681.14 196.324 673.323 202.135 664.39 205.678C655.474 209.22 645.825 211 635.462 211C628.744 211 622.358 210.232 616.321 208.697C610.285 207.161 605.05 204.77 600.636 201.507C596.222 198.243 592.715 193.985 590.133 188.698C587.55 183.428 586.242 177.04 586.242 169.554C586.242 161.108 587.69 154.197 590.551 148.822C593.43 143.465 597.216 139.085 601.927 135.734C606.621 132.383 611.994 129.836 618.049 128.108C624.086 126.38 630.28 124.949 636.613 123.797C643.33 122.454 649.716 121.442 655.753 120.778C661.79 120.115 667.112 119.156 671.718 117.899C676.324 116.66 679.971 114.828 682.658 112.419C685.345 110.011 686.688 106.521 686.688 101.914C686.688 96.539 685.676 92.2286 683.67 88.9653C681.663 85.702 679.063 83.2065 675.905 81.4788C672.747 79.7512 669.188 78.5994 665.262 78.0235C661.337 77.4476 657.446 77.151 653.607 77.151C643.243 77.151 634.607 79.1229 627.715 83.0494C620.806 86.9933 617.072 94.4275 616.496 105.369H592.034C592.418 96.1551 594.337 88.3894 597.792 82.0547C601.247 75.72 605.853 70.5894 611.611 66.6629C617.368 62.7365 623.946 59.8919 631.326 58.1643C638.707 56.4366 646.628 55.5815 655.073 55.5815C661.79 55.5815 668.455 56.0702 675.085 57.0125C681.698 57.9723 687.7 59.9268 693.074 62.911C698.43 65.8776 702.757 70.031 706.02 75.4059C709.283 80.7633 710.905 87.7612 710.905 96.3645V172.765C710.905 178.506 711.237 182.729 711.917 185.399C712.58 188.087 714.831 189.413 718.687 189.413C720.798 189.413 723.293 189.029 726.172 188.261V207.266H726.137ZM686.426 130.97C683.355 133.256 679.325 134.931 674.335 135.978C669.345 137.025 664.111 137.898 658.65 138.561C653.188 139.224 647.657 139.992 642.109 140.847C636.543 141.702 631.553 143.081 627.139 145C622.725 146.903 619.131 149.625 616.339 153.168C613.565 156.71 612.169 161.527 612.169 167.634C612.169 171.648 612.972 175.034 614.612 177.808C616.234 180.583 618.345 182.817 620.945 184.544C623.527 186.272 626.563 187.511 630.018 188.261C633.473 189.029 637.119 189.396 640.958 189.396C649.018 189.396 655.928 188.296 661.685 186.115C667.443 183.916 672.137 181.141 675.783 177.808C679.43 174.475 682.117 170.828 683.844 166.919C685.571 163.01 686.444 159.328 686.444 155.89V130.97H686.426Z" fill="white"/>
<path d="M760.387 174.58C762.69 178.314 765.709 181.298 769.46 183.497C773.211 185.696 777.416 187.284 782.127 188.244C786.838 189.204 791.671 189.675 796.661 189.675C800.499 189.675 804.53 189.378 808.752 188.802C812.974 188.226 816.848 187.179 820.407 185.626C823.949 184.091 826.88 181.839 829.183 178.855C831.486 175.889 832.638 172.084 832.638 167.477C832.638 161.142 830.247 156.343 825.449 153.08C820.651 149.817 814.667 147.182 807.461 145.157C800.272 143.133 792.438 141.318 784.011 139.695C775.566 138.072 767.75 135.751 760.561 132.785C753.373 129.818 747.371 125.63 742.573 120.272C737.775 114.897 735.367 107.411 735.367 97.8128C735.367 90.3263 737.042 83.9044 740.409 78.5295C743.759 73.1546 748.086 68.7918 753.356 65.4238C758.625 62.0732 764.574 59.5777 771.205 57.9373C777.817 56.3143 784.395 55.4941 790.92 55.4941C799.365 55.4941 807.129 56.2096 814.231 57.6581C821.332 59.089 827.613 61.5845 833.074 65.1445C838.535 68.6871 842.897 73.4861 846.177 79.5416C849.422 85.5971 851.359 93.1185 851.935 102.141H827.473C827.089 97.3416 825.833 93.3628 823.722 90.1867C821.611 87.0281 818.924 84.4802 815.661 82.5606C812.398 80.641 808.804 79.2449 804.861 78.3898C800.918 77.5347 796.94 77.0985 792.909 77.0985C789.263 77.0985 785.564 77.3951 781.83 77.971C778.096 78.5469 774.677 79.5591 771.606 80.99C768.535 82.4385 766.04 84.3581 764.121 86.7489C762.202 89.1571 761.242 92.2634 761.242 96.1026C761.242 100.326 762.725 103.833 765.708 106.608C768.692 109.4 772.478 111.704 777.084 113.519C781.691 115.351 786.873 116.887 792.63 118.126C798.388 119.382 804.146 120.674 809.903 122.017C816.045 123.361 822.03 125.001 827.892 126.921C833.754 128.841 838.919 131.389 843.438 134.547C847.939 137.723 851.586 141.702 854.378 146.484C857.152 151.283 858.548 157.233 858.548 164.336C858.548 173.358 856.681 180.845 852.947 186.795C849.196 192.746 844.31 197.545 838.273 201.193C832.237 204.84 825.414 207.388 817.842 208.819C810.27 210.25 802.732 210.983 795.247 210.983C786.995 210.983 779.126 210.11 771.641 208.4C764.156 206.672 757.543 203.845 751.785 199.901C746.028 195.975 741.421 190.792 737.967 184.352C734.512 177.93 732.593 170.112 732.209 160.898H756.671C756.863 166.273 758.101 170.828 760.404 174.562L760.387 174.58Z" fill="white"/>
<path d="M942 59.0192V80.6061H912.356V173.027C912.356 175.906 912.6 178.192 913.072 179.92C913.543 181.647 914.467 182.991 915.811 183.951C917.154 184.911 919.021 185.521 921.429 185.818C923.819 186.115 926.942 186.254 930.781 186.254H942V207.841H923.296C916.962 207.841 911.536 207.405 907.035 206.55C902.533 205.695 898.887 204.107 896.095 201.803C893.321 199.5 891.244 196.236 889.918 192.031C888.575 187.808 887.912 182.241 887.912 175.33V80.6235H862.595V59.0366H887.912V14.397H912.374V59.0192H942.017H942Z" fill="white"/>
<path d="M79.4393 210.721C67.348 210.721 56.4083 208.661 46.6376 204.525C36.8495 200.407 28.5095 194.788 21.6002 187.685C14.6909 180.6 9.3694 172.328 5.61815 162.922C1.88435 153.516 0 143.639 0 133.273C0 122.907 1.81456 112.402 5.47857 102.908C9.12513 93.415 14.3943 85.0559 21.3036 77.8661C28.2129 70.6763 36.6052 64.9698 46.4806 60.7292C56.356 56.5061 67.4353 54.3945 79.7184 54.3945C92.0016 54.3945 102.976 56.5061 112.677 60.7292C122.361 64.9524 130.613 70.624 137.435 77.7265C144.24 84.8291 149.422 93.0834 152.981 102.489C156.523 111.896 158.303 121.686 158.303 131.859C158.303 134.355 158.25 136.746 158.163 139.049C158.058 141.353 157.832 143.272 157.448 144.808H40.8625C41.4382 150.759 42.8689 156.029 45.172 160.636C47.4751 165.243 50.4412 169.187 54.0878 172.433C57.7344 175.696 61.852 178.192 66.4582 179.92C71.0644 181.647 75.8625 182.52 80.8525 182.52C88.5295 182.52 95.7703 180.635 102.575 176.901C109.379 173.166 114.038 168.227 116.533 162.067L149.631 171.281C144.065 182.799 135.185 192.24 123.006 199.639C110.81 207.038 96.2937 210.721 79.4044 210.721H79.4393ZM118.574 119.749C117.615 108.423 113.445 99.3483 106.047 92.5424C98.6666 85.7365 89.6811 82.3161 79.1427 82.3161C73.9607 82.3161 69.1102 83.2236 64.6087 85.0559C60.0898 86.8883 56.1117 89.4187 52.6571 92.682C49.2024 95.9454 46.3759 99.8718 44.1601 104.479C41.9442 109.086 40.6531 114.182 40.2692 119.731H118.557L118.574 119.749Z" fill="white"/>
<path d="M169.521 132.418C169.521 121.86 171.336 111.896 175 102.489C178.647 93.0834 183.916 84.8291 190.825 77.7265C197.734 70.624 206.074 64.9698 215.863 60.7292C225.651 56.5061 236.678 54.3945 248.961 54.3945C265.466 54.3945 279.512 57.9371 291.132 65.0396C302.734 72.1422 311.423 81.4436 317.181 92.9612L279.477 104.479C276.214 98.912 271.887 94.654 266.531 91.6699C261.157 88.7032 255.207 87.2024 248.682 87.2024C243.116 87.2024 237.934 88.3018 233.136 90.5181C228.338 92.7344 224.168 95.7883 220.608 99.7322C217.049 103.676 214.275 108.423 212.268 113.99C210.262 119.557 209.25 125.699 209.25 132.418C209.25 139.137 210.297 145.279 212.408 150.846C214.519 156.413 217.346 161.212 220.905 165.243C224.447 169.274 228.634 172.398 233.432 174.597C238.23 176.813 243.308 177.913 248.682 177.913C255.591 177.913 261.959 176.185 267.822 172.73C273.667 169.274 277.749 165.051 280.052 160.06L317.757 171.578C312.575 183.096 304.043 192.502 292.144 199.796C280.244 207.091 265.955 210.738 249.257 210.738C236.974 210.738 225.947 208.626 216.159 204.403C206.371 200.18 198.031 194.474 191.122 187.284C184.212 180.094 178.891 171.735 175.14 162.242C171.406 152.748 169.521 142.819 169.521 132.453V132.418Z" fill="white"/>
</g>
<defs>
<clipPath id="clip0_127_8">
<rect width="942" height="211" fill="white"/>
</clipPath>
</defs>
</svg>
