<svg width="73" height="74" viewBox="0 0 73 74" fill="none" xmlns="http://www.w3.org/2000/svg">
<g clip-path="url(#clip0_128_139)">
<path d="M19.5721 25.0596C19.6493 28.0257 20.1897 30.9918 21.1162 33.8058C19.6107 34.7184 18.2209 35.7831 16.947 37C14.1675 33.5776 12.5462 29.3947 12.2759 25.0596H19.5721ZM21.1162 13.7657C20.1897 16.6177 19.6493 19.5457 19.5721 22.5118H12.2759C12.5462 18.1387 14.1675 13.9938 16.947 10.5714C18.2209 11.7883 19.6107 12.853 21.1162 13.7657ZM22.0427 11.37C20.846 10.6095 19.6879 9.69682 18.6842 8.70812C21.2321 6.23638 24.3976 4.37307 27.8719 3.38438C25.4013 5.62796 23.3939 8.32785 22.0813 11.37M45.8614 11.332C44.5488 8.32785 42.58 5.62796 40.0708 3.38438C43.5065 4.37307 46.6334 6.19836 49.1813 8.63207C48.1776 9.62076 47.0581 10.5334 45.8614 11.2939M48.3706 22.5498C48.2934 19.5457 47.7529 16.5797 46.7878 13.7276C48.2934 12.815 49.6445 11.7503 50.9185 10.5334C53.7365 13.9558 55.3965 18.1387 55.6281 22.5498H48.3706ZM46.7878 33.8818C47.7529 31.0298 48.2548 28.0637 48.3706 25.0596H55.6667C55.3965 29.4327 53.7752 33.6537 50.9571 37.0761C49.6831 35.8592 48.2934 34.7945 46.8264 33.8818M45.8614 36.2775C47.0581 37.038 48.1776 37.9507 49.1813 38.9394C46.6334 41.4111 43.5065 43.1984 40.0708 44.1871C42.5414 41.9815 44.5102 39.2816 45.8614 36.2395M27.8333 44.1871C24.359 43.1984 21.2321 41.3731 18.6456 38.8633C19.6879 37.8746 20.8074 36.962 22.0041 36.2014C23.3553 39.2436 25.3241 41.9435 27.7947 44.1871M32.6588 32.8171V44.5293C28.9528 42.4378 26.0961 39.1295 24.2818 34.9846C26.9068 33.7297 29.7635 33.0072 32.6588 32.8551M32.6588 25.0596V30.3073C29.4547 30.4594 26.2892 31.258 23.3939 32.5889C22.6218 30.1552 22.1972 27.6074 22.1199 25.0596H32.6588ZM32.6588 17.3022V22.5498H22.1199C22.1972 20.0021 22.6218 17.4543 23.3939 15.0206C26.2892 16.3515 29.4547 17.1501 32.6588 17.3022ZM32.6588 3.04214V14.7544C29.7635 14.6023 26.9068 13.8798 24.2818 12.5868C26.0961 8.44193 28.9528 5.13361 32.6588 3.04214ZM35.2453 14.7544V3.04214C38.9512 5.13361 41.8079 8.44193 43.6223 12.5488C40.9973 13.8417 38.1792 14.5642 35.2453 14.7544ZM35.2453 22.5498V17.3022C38.4494 17.1501 41.6149 16.3515 44.4716 14.9825C45.2437 17.4543 45.6683 20.0021 45.7455 22.5498H35.2453ZM35.2453 30.3073V25.0596H45.7841C45.7069 27.6074 45.2823 30.1552 44.5102 32.6269C41.6149 31.258 38.4494 30.4594 35.2453 30.3073ZM35.2453 44.5293V32.8171C38.1406 32.9692 40.9973 33.7297 43.6223 34.9846C41.8079 39.0915 38.9512 42.3998 35.2453 44.4913M33.9713 47.5714C47.4055 47.5714 58.2918 36.924 58.2918 23.7667C58.2918 10.6095 47.4055 0 33.9713 0C20.5372 0 9.65088 10.6475 9.65088 23.8047C9.65088 36.924 20.5372 47.5714 33.9713 47.6095" fill="#4A7EBF"/>
<path d="M46.7493 69.9311C43.8154 71.3381 40.4955 71.7945 37.2914 71.2241L20.4601 67.0791C18.5685 66.6228 16.5997 66.889 14.9011 67.8017L13.55 68.5622V54.7205C18.028 51.7164 23.78 51.2981 28.6441 53.6177L29.6478 54.112C31.4236 54.9486 33.3538 55.3669 35.284 55.3669H45.128C47.9461 55.3669 50.4167 57.3063 51.0344 60.0062H36.2491V62.5159H53.7366V61.2611C53.7366 60.6526 53.6594 60.0822 53.5436 59.5118L64.3913 54.1501C65.9741 53.2754 67.9429 53.5416 69.2554 54.7205L46.6335 69.9311H46.7493ZM2.58646 71.4902V50.8037H11.0021V70.0452H10.9249L11.0021 70.2354V71.4902H2.58646ZM63.3104 51.9065L52.7329 57.1542C51.1888 54.4923 48.3321 52.8572 45.2052 52.8572H35.3612C33.7784 52.8572 32.2343 52.5149 30.8059 51.8685L29.8022 51.3741C24.6293 48.9404 18.6071 49.0925 13.5886 51.7924V48.2939H0V74.038H13.5886V71.5283L16.2136 70.0833C17.3332 69.4748 18.6071 69.2847 19.8424 69.5889L36.7509 73.7338H36.8281C37.8704 73.924 38.9513 74.038 40.0323 74.038C42.8117 74.038 45.5526 73.4296 48.0619 72.2128H48.1391L73.0772 55.4049L72.4595 54.4162C70.568 51.3741 66.5918 50.3094 63.3876 51.9825" fill="#4A7EBF"/>
</g>
<defs>
<clipPath id="clip0_128_139">
<rect width="73" height="74" fill="white"/>
</clipPath>
</defs>
</svg>
