<svg width="126" height="104" viewBox="0 0 126 104" fill="none" xmlns="http://www.w3.org/2000/svg">
<g clip-path="url(#clip0_128_23)">
<path d="M100.272 48.9133C100.272 49.7576 100.272 50.549 100.219 51.3933C100.113 52.3958 100.007 53.3456 99.7961 54.2954C98.8452 58.5166 96.6263 62.2101 93.7207 65.5343C89.7584 70.0721 85.5848 74.4516 81.5169 78.8839C77.2376 83.5272 73.0112 88.2233 68.6792 92.8139C67.9395 93.6054 66.8829 94.8717 65.3508 95.03C64.2414 95.1355 63.5018 94.6607 62.7622 93.8692C62.0754 93.1832 61.8641 91.442 62.1282 90.3867C62.3924 89.2258 63.3433 88.1706 64.1886 87.2208C66.1433 85.0574 68.098 82.9468 70.0527 80.7834C71.0037 79.7281 71.9546 78.6728 72.9056 77.6175C73.9093 76.5095 76.815 74.0823 75.1773 72.4465C73.6452 70.9164 71.4791 73.8712 70.581 74.8737C69.6301 75.929 68.6791 76.9843 67.6754 77.9869C63.1848 82.7885 58.6942 87.6957 54.098 92.339C51.9848 94.4496 50.3471 94.2913 48.9207 92.4445C47.5471 90.7033 47.8112 88.962 49.8188 86.7987C54.9433 81.2056 60.0678 75.6125 65.1924 70.0194C65.932 69.2279 66.5131 68.7002 66.6716 67.5394C66.7773 66.6424 66.4603 65.8509 65.615 65.7454C64.1886 65.5343 63.6074 66.1147 62.7093 67.0645C56.6867 73.6601 50.6641 80.203 44.6414 86.7987C42.6339 88.962 40.4678 88.9093 38.9886 86.7459C37.8792 85.1102 38.1961 83.3162 39.9924 81.3639C46.1207 74.6627 52.249 67.9615 58.3773 61.3131C59.381 60.205 60.1735 58.9915 58.9584 57.7779C57.7961 56.5643 56.7924 57.6196 55.8942 58.6221C51.1924 63.7931 46.4376 68.9113 41.7358 74.0823C41.1018 74.7682 40.4678 75.4542 39.6754 75.929C37.932 76.9844 35.7659 76.0346 35.0263 74.0295C34.2867 71.9717 35.2376 70.6525 36.4527 69.3862C44.2716 60.891 52.1433 52.3431 59.9093 43.7423L63.132 47.2776C64.2414 48.4912 65.6678 49.0716 67.0942 49.0716C68.5207 49.0716 69.9471 48.4912 71.0565 47.2776L71.6905 46.5917C72.7471 45.4308 73.3282 43.9006 73.3282 42.2649C73.3282 40.7347 72.7999 39.3101 71.849 38.1492L64.7169 30.2872L63.3433 28.7571L65.2452 26.6992C68.2037 24.272 70.7924 23.375 72.9584 23.2695C76.9207 22.9001 80.4074 25.1163 80.4074 25.1163L82.5207 22.8474L89.2301 15.5658L110.098 38.3075L100.377 48.9133H100.272ZM90.0226 79.2005C89.2829 81.2056 87.1169 82.1553 85.3735 81.1C85.215 80.9945 85.0565 80.889 84.898 80.7834C86.4829 79.095 88.015 77.4065 89.5471 75.6652C90.2339 76.615 90.5509 77.7231 90.0226 79.2005ZM85.9546 91.9696C84.5282 94.133 82.3093 94.1858 80.3018 91.9696C79.298 90.9143 78.3471 89.8063 77.3433 88.751C78.981 87.0097 80.6188 85.3212 82.2037 83.58C83.1018 84.5825 84.0527 85.5851 84.9508 86.5876C86.6942 88.5399 87.0112 90.3339 85.9018 91.9696M75.9697 97.6683C74.5433 99.515 72.9056 99.6733 70.7924 97.5627C70.4754 97.2461 70.1584 96.8768 69.8414 96.5602C70.3169 96.2436 70.7395 95.8743 71.1622 95.4521C72.3773 94.1858 73.5395 92.9194 74.7546 91.653C74.8603 91.8113 75.0188 91.9169 75.1244 92.0752C77.0791 94.2385 77.3433 95.9798 76.0225 97.721M62.2339 99.0929C61.4942 99.8316 60.7546 100.307 59.6452 100.254C58.1131 100.148 57.0565 98.8291 56.3169 98.0376C55.8414 97.5627 55.4188 97.0878 54.9433 96.5602C55.9999 95.927 57.1093 95.0828 58.3244 93.9747C59.0641 95.2411 59.3282 96.0325 60.7546 96.9296C61.3886 97.3517 62.0754 97.6155 62.815 97.8266C62.7093 98.3542 62.498 98.7763 62.2339 99.0929ZM31.2754 70.7053C28.3697 67.3811 26.2037 63.6875 25.2527 59.4663C25.0414 58.5166 24.8829 57.5668 24.8301 56.617C24.7773 55.8255 24.7244 54.9813 24.7773 54.1371L15.0565 43.5313L35.9244 20.7895L42.6339 28.0711L43.0565 28.546L46.2792 28.9153L46.4905 28.3349C47.7584 27.3852 53.0414 24.1665 60.1207 30.0762L69.4716 40.3126C69.9471 40.8403 70.2112 41.5262 70.2112 42.2649C70.2112 43.0036 69.9471 43.6896 69.4716 44.2172L68.8376 44.9032C67.8339 45.9585 66.3018 45.9585 65.298 44.9032L55.7358 34.4557L53.4112 36.2497L55.9999 39.5211L57.1093 40.7347C55.9999 41.9483 54.8905 43.1092 53.8339 44.3228C53.5697 44.6393 53.4112 44.9559 53.3056 45.2725C53.2527 45.3253 53.1999 45.3781 53.1471 45.4836C46.7546 52.5013 40.3093 59.4663 33.8641 66.5369C32.5961 67.9615 31.7508 69.3862 31.3282 70.8108M88.332 11.6612L79.615 21.1589C79.1924 21.1061 78.7697 21.0533 78.2942 21.0006C75.1773 19.6287 69.6301 18.6789 63.132 24.1137L62.9735 24.272L60.8603 26.5937C52.8301 20.6312 46.4376 24.3248 44.6414 25.5911L36.6112 16.8849L11.3584 44.4283L20.9207 54.8758C20.9735 59.5719 22.5056 64.3735 25.4641 69.1751C26.6792 71.1802 28.1056 73.027 29.6376 74.7154C31.5924 76.8788 33.5999 79.0422 35.6075 81.2056C33.4414 84.6353 34.3924 87.4318 36.6112 90.0173C38.9358 92.6556 41.1018 92.9722 44.2188 91.9696H44.2716C46.5433 95.716 48.6037 97.51 50.8754 97.6683C51.8263 98.6708 52.7244 99.6733 53.6754 100.676C56.4754 103.631 60.7018 104.264 64.0829 102.153C65.5093 101.256 65.7735 100.518 66.5131 99.1984C72.2188 104.422 75.9697 104.475 80.4603 97.1934H80.5659C83.7358 98.1431 85.849 97.8266 88.1735 95.1883C90.5509 92.4973 91.449 89.4897 88.8075 85.7961L88.1207 84.7936C90.0225 84.8463 91.5018 83.5272 92.3471 82.3664C94.5659 79.2532 94.4075 76.0346 92.0829 72.8159C93.0867 71.7078 94.1433 70.547 95.1999 69.4389C96.732 67.7505 98.1584 65.9037 99.3735 63.8986C102.332 59.0442 103.864 54.2426 103.917 49.5993L113.479 39.1518L88.2263 11.6084L88.332 11.6612Z" fill="#4A7EBF"/>
<path d="M100.272 48.9133C100.272 49.7576 100.272 50.549 100.219 51.3933C100.113 52.3958 100.007 53.3456 99.7961 54.2954C98.8452 58.5166 96.6263 62.2101 93.7207 65.5343C89.7584 70.0721 85.5848 74.4516 81.5169 78.8839C77.2376 83.5272 73.0112 88.2233 68.6792 92.8139C67.9395 93.6054 66.8829 94.8717 65.3508 95.03C64.2414 95.1355 63.5018 94.6607 62.7622 93.8692C62.0754 93.1832 61.8641 91.442 62.1282 90.3867C62.3924 89.2258 63.3433 88.1706 64.1886 87.2208C66.1433 85.0574 68.098 82.9468 70.0527 80.7834C71.0037 79.7281 71.9546 78.6728 72.9056 77.6175C73.9093 76.5095 76.815 74.0823 75.1773 72.4465C73.6452 70.9164 71.4791 73.8712 70.581 74.8737C69.6301 75.929 68.6791 76.9843 67.6754 77.9869C63.1848 82.7885 58.6942 87.6957 54.098 92.339C51.9848 94.4496 50.3471 94.2913 48.9207 92.4445C47.5471 90.7033 47.8112 88.962 49.8188 86.7987C54.9433 81.2056 60.0678 75.6125 65.1924 70.0194C65.932 69.2279 66.5131 68.7002 66.6716 67.5394C66.7773 66.6424 66.4603 65.8509 65.615 65.7454C64.1886 65.5343 63.6074 66.1147 62.7093 67.0645C56.6867 73.6601 50.6641 80.203 44.6414 86.7987C42.6339 88.962 40.4678 88.9093 38.9886 86.7459C37.8792 85.1102 38.1961 83.3162 39.9924 81.3639C46.1207 74.6627 52.249 67.9615 58.3773 61.3131C59.381 60.205 60.1735 58.9915 58.9584 57.7779C57.7961 56.5643 56.7924 57.6196 55.8942 58.6221C51.1924 63.7931 46.4376 68.9113 41.7358 74.0823C41.1018 74.7682 40.4678 75.4542 39.6754 75.929C37.932 76.9844 35.7659 76.0346 35.0263 74.0295C34.2867 71.9717 35.2376 70.6525 36.4527 69.3862C44.2716 60.891 52.1433 52.3431 59.9093 43.7423L63.132 47.2776C64.2414 48.4912 65.6678 49.0716 67.0942 49.0716C68.5207 49.0716 69.9471 48.4912 71.0565 47.2776L71.6905 46.5917C72.7471 45.4308 73.3282 43.9006 73.3282 42.2649C73.3282 40.7347 72.7999 39.3101 71.849 38.1492L64.7169 30.2872L63.3433 28.7571L65.2452 26.6992C68.2037 24.272 70.7924 23.375 72.9584 23.2695C76.9207 22.9001 80.4074 25.1163 80.4074 25.1163L82.5207 22.8474L89.2301 15.5658L110.098 38.3075L100.377 48.9133H100.272ZM90.0226 79.2005C89.2829 81.2056 87.1169 82.1553 85.3735 81.1C85.215 80.9945 85.0565 80.889 84.898 80.7834C86.4829 79.095 88.015 77.4065 89.5471 75.6652C90.2339 76.615 90.5509 77.7231 90.0226 79.2005ZM85.9546 91.9696C84.5282 94.133 82.3093 94.1858 80.3018 91.9696C79.298 90.9143 78.3471 89.8063 77.3433 88.751C78.981 87.0097 80.6188 85.3212 82.2037 83.58C83.1018 84.5825 84.0527 85.5851 84.9508 86.5876C86.6942 88.5399 87.0112 90.3339 85.9018 91.9696H85.9546ZM75.9697 97.6683C74.5433 99.515 72.9056 99.6733 70.7924 97.5627C70.4754 97.2461 70.1584 96.8768 69.8414 96.5602C70.3169 96.2436 70.7395 95.8743 71.1622 95.4521C72.3773 94.1858 73.5395 92.9194 74.7546 91.653C74.8603 91.8113 75.0188 91.9169 75.1244 92.0752C77.0791 94.2385 77.3433 95.9798 76.0225 97.721L75.9697 97.6683ZM62.2339 99.0929C61.4942 99.8316 60.7546 100.307 59.6452 100.254C58.1131 100.148 57.0565 98.8291 56.3169 98.0376C55.8414 97.5627 55.4188 97.0878 54.9433 96.5602C55.9999 95.927 57.1093 95.0828 58.3244 93.9747C59.0641 95.2411 59.3282 96.0325 60.7546 96.9296C61.3886 97.3517 62.0754 97.6155 62.815 97.8266C62.7093 98.3542 62.498 98.7763 62.2339 99.0929ZM31.2754 70.7053C28.3697 67.3811 26.2037 63.6875 25.2527 59.4663C25.0414 58.5166 24.8829 57.5668 24.8301 56.617C24.7773 55.8255 24.7244 54.9813 24.7773 54.1371L15.0565 43.5313L35.9244 20.7895L42.6339 28.0711L43.0565 28.546L46.2792 28.9153L46.4905 28.3349C47.7584 27.3852 53.0414 24.1665 60.1207 30.0762L69.4716 40.3126C69.9471 40.8403 70.2112 41.5262 70.2112 42.2649C70.2112 43.0036 69.9471 43.6896 69.4716 44.2172L68.8376 44.9032C67.8339 45.9585 66.3018 45.9585 65.298 44.9032L55.7358 34.4557L53.4112 36.2497L55.9999 39.5211L57.1093 40.7347C55.9999 41.9483 54.8905 43.1092 53.8339 44.3228C53.5697 44.6393 53.4112 44.9559 53.3056 45.2725C53.2527 45.3253 53.1999 45.3781 53.1471 45.4836C46.7546 52.5013 40.3093 59.4663 33.8641 66.5369C32.5961 67.9615 31.7508 69.3862 31.3282 70.8108L31.2754 70.7053ZM88.332 11.6612L79.615 21.1589C79.1924 21.1061 78.7697 21.0533 78.2942 21.0006C75.1773 19.6287 69.6301 18.6789 63.132 24.1137L62.9735 24.272L60.8603 26.5937C52.8301 20.6312 46.4376 24.3248 44.6414 25.5911L36.6112 16.8849L11.3584 44.4283L20.9207 54.8758C20.9735 59.5719 22.5056 64.3735 25.4641 69.1751C26.6792 71.1802 28.1056 73.027 29.6376 74.7154C31.5924 76.8788 33.5999 79.0422 35.6075 81.2056C33.4414 84.6353 34.3924 87.4318 36.6112 90.0173C38.9358 92.6556 41.1018 92.9722 44.2188 91.9696H44.2716C46.5433 95.716 48.6037 97.51 50.8754 97.6683C51.8263 98.6708 52.7244 99.6733 53.6754 100.676C56.4754 103.631 60.7018 104.264 64.0829 102.153C65.5093 101.256 65.7735 100.518 66.5131 99.1984C72.2188 104.422 75.9697 104.475 80.4603 97.1934H80.5659C83.7358 98.1431 85.849 97.8266 88.1735 95.1883C90.5509 92.4973 91.449 89.4897 88.8075 85.7961L88.1207 84.7936C90.0225 84.8463 91.5018 83.5272 92.3471 82.3664C94.5659 79.2532 94.4075 76.0346 92.0829 72.8159C93.0867 71.7078 94.1433 70.547 95.1999 69.4389C96.732 67.7505 98.1584 65.9037 99.3735 63.8986C102.332 59.0442 103.864 54.2426 103.917 49.5993L113.479 39.1518L88.2263 11.6084L88.332 11.6612Z" stroke="#4A7EBF" stroke-width="0.25" stroke-linecap="round" stroke-linejoin="round"/>
<path d="M44.1131 16.0932C45.4867 17.5706 45.4867 19.9978 44.1131 21.4752L14.1056 54.2423C12.732 55.7198 10.5131 55.7198 9.19239 54.2423L3.48673 48.0161C2.11315 46.5386 2.11315 44.1114 3.48673 42.634L33.4414 9.81412C34.815 8.3367 37.0339 8.3367 38.3547 9.81412L44.0603 16.0404L44.1131 16.0932Z" fill="white"/>
<path d="M44.1131 16.0932C45.4867 17.5706 45.4867 19.9978 44.1131 21.4752L14.1056 54.2423C12.732 55.7198 10.5131 55.7198 9.19239 54.2423L3.48673 48.0161C2.11315 46.5386 2.11315 44.1114 3.48673 42.634L33.4414 9.81412C34.815 8.3367 37.0339 8.3367 38.3547 9.81412L44.0603 16.0404L44.1131 16.0932Z" stroke="#4A7EBF" stroke-width="0.25" stroke-linecap="round" stroke-linejoin="round"/>
<path d="M44.1134 16.0933L42.8983 17.4652C43.2153 17.8345 43.4266 18.3094 43.4266 18.8371C43.4266 19.3647 43.2681 19.7869 42.8983 20.209L12.8908 52.9761C12.5738 53.3455 12.0983 53.5565 11.6757 53.5565C11.253 53.5565 10.7776 53.3982 10.4606 52.9761L4.75494 46.7498C4.38512 46.3805 4.22663 45.9056 4.22663 45.3779C4.22663 44.8503 4.38512 44.4282 4.75494 44.0588L34.7097 11.1861C35.0266 10.8168 35.5021 10.6057 35.9247 10.6057C36.4002 10.6057 36.8229 10.764 37.1398 11.1861L42.8455 17.4124L44.0606 16.0405L45.2757 14.7214L39.57 8.49512C38.5663 7.38706 37.1927 6.80664 35.8719 6.80664C34.5512 6.80664 33.1776 7.38706 32.1738 8.49512L2.21909 41.2623C1.21531 42.3703 0.687012 43.8477 0.687012 45.3252C0.687012 46.8026 1.21531 48.28 2.21909 49.3881L7.92475 55.6144C8.92852 56.7224 10.3021 57.3028 11.6229 57.3028C12.9436 57.3028 14.3172 56.7224 15.321 55.6144L45.3285 22.8472C46.3323 21.7392 46.8606 20.2617 46.8606 18.7843C46.8606 17.3069 46.3323 15.8822 45.3285 14.7742L44.1134 16.0933Z" fill="#4A7EBF"/>
<path d="M44.1134 16.0933L42.8983 17.4652C43.2153 17.8345 43.4266 18.3094 43.4266 18.8371C43.4266 19.3647 43.2681 19.7869 42.8983 20.209L12.8908 52.9761C12.5738 53.3455 12.0983 53.5565 11.6757 53.5565C11.253 53.5565 10.7776 53.3982 10.4606 52.9761L4.75494 46.7498C4.38512 46.3805 4.22663 45.9056 4.22663 45.3779C4.22663 44.8503 4.38512 44.4282 4.75494 44.0588L34.7097 11.1861C35.0266 10.8168 35.5021 10.6057 35.9247 10.6057C36.4002 10.6057 36.8229 10.764 37.1398 11.1861L42.8455 17.4124L44.0606 16.0405L45.2757 14.7214L39.57 8.49512C38.5663 7.38706 37.1927 6.80664 35.8719 6.80664C34.5512 6.80664 33.1776 7.38706 32.1738 8.49512L2.21909 41.2623C1.21531 42.3703 0.687012 43.8477 0.687012 45.3252C0.687012 46.8026 1.21531 48.28 2.21909 49.3881L7.92475 55.6144C8.92852 56.7224 10.3021 57.3028 11.6229 57.3028C12.9436 57.3028 14.3172 56.7224 15.321 55.6144L45.3285 22.8472C46.3323 21.7392 46.8606 20.2617 46.8606 18.7843C46.8606 17.3069 46.3323 15.8822 45.3285 14.7742L44.1134 16.0933Z" stroke="#4A7EBF" stroke-width="0.25" stroke-linecap="round" stroke-linejoin="round"/>
<path d="M81.8866 9.92029C80.513 11.3977 80.513 13.8249 81.8866 15.3023L111.894 48.0695C113.268 49.5469 115.487 49.5469 116.807 48.0695L122.513 41.8432C123.887 40.3657 123.887 37.9386 122.513 36.4611L92.5583 3.694C91.1847 2.21658 88.9659 2.21658 87.6451 3.694L81.9395 9.92029H81.8866Z" fill="white"/>
<path d="M81.8866 9.92029C80.513 11.3977 80.513 13.8249 81.8866 15.3023L111.894 48.0695C113.268 49.5469 115.487 49.5469 116.807 48.0695L122.513 41.8432C123.887 40.3657 123.887 37.9386 122.513 36.4611L92.5583 3.694C91.1847 2.21658 88.9659 2.21658 87.6451 3.694L81.9395 9.92029H81.8866Z" stroke="#4A7EBF" stroke-width="0.25" stroke-linecap="round" stroke-linejoin="round"/>
<path d="M81.8868 9.91947L80.6717 8.60034C79.668 9.70841 79.1396 11.1858 79.1396 12.6633C79.1396 14.1407 79.668 15.5653 80.6717 16.7262L110.679 49.4933C111.683 50.6014 113.057 51.1818 114.377 51.1818C115.698 51.1818 117.072 50.6014 118.076 49.4933L123.781 43.267C124.785 42.1589 125.313 40.6815 125.313 39.2041C125.313 37.7267 124.785 36.2493 123.781 35.1412L93.7736 2.3213C92.7698 1.21323 91.3963 0.632812 90.0755 0.632812C88.7547 0.632812 87.3812 1.21323 86.3774 2.3213L80.6717 8.54758L81.8868 9.8667L83.1019 11.2386L88.8076 5.01232C89.1246 4.64296 89.6 4.4319 90.0227 4.4319C90.4981 4.4319 90.9208 4.59019 91.2378 5.01232L121.245 37.7794C121.615 38.1488 121.774 38.6237 121.774 39.0986C121.774 39.5735 121.615 40.0483 121.245 40.4705L115.54 46.6967C115.223 47.0661 114.747 47.2772 114.325 47.2772C113.902 47.2772 113.426 47.1189 113.109 46.6967L83.1019 13.9296C82.7321 13.5603 82.5736 13.0854 82.5736 12.5577C82.5736 12.0301 82.7321 11.608 83.1019 11.1858L81.8868 9.81394V9.91947Z" fill="#4A7EBF"/>
<path d="M81.8868 9.91947L80.6717 8.60034C79.668 9.70841 79.1396 11.1858 79.1396 12.6633C79.1396 14.1407 79.668 15.5653 80.6717 16.7262L110.679 49.4933C111.683 50.6014 113.057 51.1818 114.377 51.1818C115.698 51.1818 117.072 50.6014 118.076 49.4933L123.781 43.267C124.785 42.1589 125.313 40.6815 125.313 39.2041C125.313 37.7267 124.785 36.2493 123.781 35.1412L93.7736 2.3213C92.7698 1.21323 91.3963 0.632812 90.0755 0.632812C88.7547 0.632812 87.3812 1.21323 86.3774 2.3213L80.6717 8.54758L81.8868 9.8667L83.1019 11.2386L88.8076 5.01232C89.1246 4.64296 89.6 4.4319 90.0227 4.4319C90.4981 4.4319 90.9208 4.59019 91.2378 5.01232L121.245 37.7794C121.615 38.1488 121.774 38.6237 121.774 39.0986C121.774 39.5735 121.615 40.0483 121.245 40.4705L115.54 46.6967C115.223 47.0661 114.747 47.2772 114.325 47.2772C113.902 47.2772 113.426 47.1189 113.109 46.6967L83.1019 13.9296C82.7321 13.5603 82.5736 13.0854 82.5736 12.5577C82.5736 12.0301 82.7321 11.608 83.1019 11.1858L81.8868 9.81394V9.91947Z" stroke="#4A7EBF" stroke-width="0.25" stroke-linecap="round" stroke-linejoin="round"/>
</g>
<defs>
<clipPath id="clip0_128_23">
<rect width="126" height="104" fill="white"/>
</clipPath>
</defs>
</svg>
