<svg width="80" height="80" viewBox="0 0 80 80" fill="none" xmlns="http://www.w3.org/2000/svg">
<g clip-path="url(#clip0_114_4)">
<path d="M40 80C62.0914 80 80 62.0914 80 40C80 17.9086 62.0914 0 40 0C17.9086 0 0 17.9086 0 40C0 62.0914 17.9086 80 40 80Z" fill="#25D366"/>
<path d="M57.7163 22.1808C53.015 17.4745 46.7644 14.882 40.1044 14.8789C26.3831 14.8789 15.2131 26.0464 15.2087 39.7733C15.2062 44.162 16.3531 48.4452 18.5312 52.2189L15 65.1202L28.1969 61.6589C31.8338 63.6408 35.9275 64.6864 40.0944 64.6883H40.105C53.8262 64.6883 64.9944 53.5189 65 39.7927C65.0031 33.1414 62.415 26.8864 57.7163 22.1808ZM40.105 60.4833H40.0969C36.3825 60.482 32.7412 59.4845 29.5637 57.5995L28.8081 57.1508L20.9769 59.2052L23.0662 51.5702L22.5744 50.7852C20.5025 47.4914 19.4081 43.6845 19.4106 39.7733C19.4144 28.3652 28.6975 19.0833 40.1113 19.0833C45.6388 19.0845 50.8331 21.2402 54.7406 25.152C58.6475 29.0633 60.7975 34.2614 60.7962 39.7908C60.7925 51.2008 51.5094 60.4833 40.105 60.4833ZM51.455 44.9864C50.8325 44.6745 47.7744 43.1714 47.2038 42.962C46.6331 42.7545 46.22 42.6514 45.805 43.2739C45.39 43.8964 44.1981 45.2983 43.8344 45.7133C43.4719 46.1283 43.1094 46.1808 42.4869 45.8689C41.8644 45.557 39.8606 44.9008 37.4862 42.7808C35.6362 41.1327 34.3875 39.0939 34.025 38.4714C33.6625 37.8489 33.9862 37.5133 34.2981 37.2027C34.5781 36.9239 34.9206 36.4764 35.2312 36.1127C35.5419 35.7489 35.6456 35.4895 35.8531 35.0752C36.0606 34.6602 35.9575 34.297 35.8013 33.9858C35.645 33.6739 34.4013 30.612 33.8838 29.3664C33.3781 28.1533 32.8656 28.3177 32.4844 28.2989C32.1206 28.2814 31.7063 28.2764 31.2919 28.2764C30.8775 28.2764 30.2031 28.432 29.6331 29.0552C29.0637 29.6777 27.4563 31.182 27.4563 34.2452C27.4563 37.3064 29.685 40.2652 29.9963 40.6795C30.3075 41.0939 34.3825 47.3783 40.6225 50.0727C42.1063 50.7127 43.2656 51.0958 44.1687 51.3833C45.6587 51.8577 47.015 51.7895 48.0875 51.6295C49.2825 51.4514 51.7675 50.1252 52.2869 48.672C52.805 47.2195 52.805 45.9745 52.6481 45.7145C52.4912 45.4539 52.0763 45.2983 51.455 44.9864Z" fill="white"/>
</g>
<defs>
<clipPath id="clip0_114_4">
<rect width="80" height="80" fill="white"/>
</clipPath>
</defs>
</svg>
