<svg width="71" height="68" fill="none" xmlns="http://www.w3.org/2000/svg"><path d="M35.097 12.058c4.565.829 6.64-12.85 11.411-12.022 4.15 4.353-2.49 13.758 2.075 15.96 6.017 2.902 14.109-6.218 15.561-2.902 1.867 4.974-8.52 10.778-7.884 13.68.953 4.352 14.4 2.901 14.731 7.047.415 5.181-13.694 2.487-14.731 6.84-1.037 4.352 9.959 11.4 7.884 14.3-2.075 2.903-12.656-4.144-15.56-2.9-2.906 1.243 1.452 13.886-2.076 15.751-3.527 1.866-7.469-10.777-11.411-11.606-2.905-.622-6.64 12.61-10.996 11.606-2.698-.621.622-13.68-1.66-15.752-2.283-2.073-14.731 4.975-15.769 2.902-1.037-2.073 7.677-12.229 7.677-14.302 0-2.072-15.146-4.56-14.316-6.84.83-2.28 13.694-4.766 14.316-7.046.622-2.28-9.13-12.022-7.677-13.68 1.453-1.658 14.109 4.767 15.769 2.902C24.1 14.13 21.61.036 24.723.036s5.81 11.193 10.374 12.022Z" fill="#FFC961"/></svg>