<svg width="158" height="158" fill="none" xmlns="http://www.w3.org/2000/svg"><path d="M78.66.084C35.214.084.004 35.301.004 78.754s35.21 78.669 78.654 78.669c43.445 0 78.655-35.216 78.655-78.67 0-43.452-35.227-78.669-78.654-78.669ZM41.094 39.803a55.6 55.6 0 0 1 39.344-16.3c6.456 0 12.632 1.222 18.407 3.282l.873-2.374a7.935 7.935 0 0 1 6.996-5.183 7.924 7.924 0 0 1 7.52 4.363l5.793 11.587 5.793 11.605a7.956 7.956 0 0 1 .349 6.283 7.968 7.968 0 0 1-4.345 4.554l-11.934 5.061-11.917 5.061a7.956 7.956 0 0 1-8.567-1.57 7.957 7.957 0 0 1-1.971-8.482l.837-2.268a24.651 24.651 0 0 0-7.834-1.274c-6.49 0-12.213 2.495-16.68 6.509l-7.084-5.637-10.137-8.062c-2.547-2.024-5.618-3.124-8.776-3.316 1.047-1.344 2.129-2.652 3.333-3.857v.018Zm29.294 94.078c-37.233-8.132-44.439-40.224-45.433-45.878l-1.85.261a7.903 7.903 0 0 1-7.886-3.7 7.906 7.906 0 0 1 .261-8.69l7.416-10.627 7.432-10.628a8.01 8.01 0 0 1 5.374-3.298c2.146-.314 4.362.296 6.072 1.64l10.12 8.08 10.137 8.08a7.915 7.915 0 0 1 2.704 8.271 7.898 7.898 0 0 1-6.508 5.76l-2.46.348c2.059 13.472 15.511 18.847 15.511 18.847l-6.91 13.228c-3.907 11.134 6.02 18.271 6.02 18.271v.035Zm49.377-15.374c-2.966 2.967-6.316 5.567-9.893 7.801l.663 1.745c1.117 2.931.367 6.282-1.901 8.481a7.972 7.972 0 0 1-8.55 1.623l-11.969-4.974-11.951-4.973a7.967 7.967 0 0 1-4.38-4.52 7.95 7.95 0 0 1 .297-6.282l5.705-11.623 5.706-11.622a7.925 7.925 0 0 1 7.502-4.433 7.957 7.957 0 0 1 7.049 5.113l.523 1.397c4.24-4.503 6.822-10.401 6.84-17.068 0-2.041-.332-3.978-.785-5.88l8.287-3.508 11.934-5.061a15.577 15.577 0 0 0 7.206-6.265c2.583 6.422 4.031 13.402 4.031 20.697a55.639 55.639 0 0 1-16.279 39.352h-.035Z" fill="#fff"/></svg>