<svg width="399" height="112" fill="none" xmlns="http://www.w3.org/2000/svg"><path d="M384.021 111.999c-2.264 0-4.299-.371-6.104-1.114-1.805-.779-3.344-1.84-4.618-3.185a14.481 14.481 0 0 1-2.866-4.618 14.977 14.977 0 0 1-1.009-5.467c0-1.947.336-3.787 1.009-5.52a14.478 14.478 0 0 1 2.866-4.619c1.274-1.344 2.813-2.388 4.618-3.132 1.805-.778 3.84-1.167 6.104-1.167 2.265 0 4.282.389 6.052 1.167 1.804.744 3.344 1.788 4.618 3.132a13.33 13.33 0 0 1 2.866 4.618c.672 1.734 1.009 3.574 1.009 5.52 0 1.911-.337 3.734-1.009 5.468a13.333 13.333 0 0 1-2.866 4.618c-1.239 1.345-2.761 2.406-4.565 3.185-1.805.743-3.84 1.114-6.105 1.114Zm-7.272-14.384c0 1.627.319 3.078.956 4.352.637 1.239 1.504 2.212 2.601 2.92 1.097.707 2.335 1.061 3.715 1.061 1.345 0 2.566-.354 3.663-1.061 1.097-.743 1.964-1.734 2.601-2.973.672-1.274 1.008-2.725 1.008-4.352 0-1.593-.336-3.026-1.008-4.3-.637-1.274-1.504-2.265-2.601-2.972-1.097-.708-2.318-1.062-3.663-1.062-1.38 0-2.618.372-3.715 1.115-1.097.707-1.964 1.698-2.601 2.972-.637 1.239-.956 2.672-.956 4.3Zm-19.102 13.854V83.655h7.113v27.814h-7.113Zm0-31.689v-7.06h7.113v7.06h-7.113Zm-17.01 32.219c-2.265 0-4.3-.371-6.104-1.114-1.805-.779-3.344-1.84-4.618-3.185a15.433 15.433 0 0 1-2.973-4.671 14.998 14.998 0 0 1-1.008-5.467c0-2.62.583-5.008 1.751-7.166 1.203-2.194 2.902-3.946 5.096-5.255 2.194-1.31 4.795-1.964 7.803-1.964s5.591.654 7.75 1.964c2.158 1.31 3.768 3.025 4.83 5.148l-6.954 2.124c-.601-1.026-1.397-1.805-2.388-2.336-.991-.566-2.088-.85-3.291-.85a6.876 6.876 0 0 0-3.716 1.063c-1.097.672-1.964 1.645-2.601 2.919-.637 1.239-.955 2.69-.955 4.353 0 1.627.318 3.078.955 4.352.673 1.239 1.557 2.23 2.654 2.973 1.097.707 2.318 1.061 3.663 1.061.849 0 1.645-.141 2.388-.424a6.97 6.97 0 0 0 2.07-1.168c.602-.496 1.044-1.062 1.328-1.699l6.953 2.124c-.637 1.38-1.575 2.618-2.813 3.715-1.203 1.097-2.637 1.964-4.3 2.601-1.628.602-3.468.902-5.52.902Zm-26.481-.53V83.655h7.113v27.814h-7.113Zm0-31.689v-7.06h7.113v7.06h-7.113Zm-21.7 31.689-10.244-27.814h7.378l7.007 21.339 7.059-21.339h6.742l-10.192 27.814h-7.75Zm-11.45-21.656c-2.159 0-4.087.425-5.786 1.274-1.698.814-2.919 2-3.662 3.556v16.827h-7.113V83.656h6.529V89.6c.991-1.911 2.247-3.415 3.768-4.512 1.522-1.097 3.132-1.699 4.831-1.805h.902c.212 0 .389.018.531.053v6.476Zm-35.438 22.186c-2.23 0-4.247-.371-6.051-1.114-1.805-.779-3.345-1.823-4.618-3.132a14.946 14.946 0 0 1-2.973-4.565 14.997 14.997 0 0 1-1.009-5.467c0-2.654.584-5.078 1.752-7.272 1.203-2.194 2.902-3.946 5.096-5.255 2.229-1.345 4.848-2.017 7.856-2.017 3.043 0 5.644.672 7.803 2.017 2.158 1.31 3.804 3.06 4.936 5.255 1.168 2.158 1.752 4.494 1.752 7.006 0 .425-.018.867-.053 1.327-.036.425-.071.779-.107 1.062h-21.497c.141 1.416.548 2.654 1.221 3.716.707 1.061 1.592 1.875 2.654 2.441a7.938 7.938 0 0 0 3.503.797 8.218 8.218 0 0 0 3.981-1.009c1.274-.708 2.141-1.628 2.601-2.76l6.104 1.698c-.672 1.416-1.645 2.672-2.919 3.769-1.239 1.097-2.707 1.964-4.406 2.601-1.698.602-3.574.902-5.626.902Zm-7.272-16.667h14.544c-.142-1.415-.549-2.636-1.221-3.662a6.492 6.492 0 0 0-2.548-2.442c-1.062-.602-2.247-.902-3.556-.902-1.274 0-2.442.3-3.504.902-1.026.566-1.875 1.38-2.548 2.442-.637 1.026-1.026 2.247-1.167 3.662Zm-15.037-11.676c-.248-.248-.708-.584-1.38-1.009-.637-.424-1.433-.831-2.389-1.22-.92-.39-1.928-.726-3.025-1.009a11.94 11.94 0 0 0-3.344-.478c-1.982 0-3.486.372-4.512 1.115-.991.743-1.486 1.787-1.486 3.132 0 1.026.318 1.84.955 2.442.637.601 1.593 1.114 2.866 1.539 1.274.424 2.867.884 4.778 1.38 2.477.602 4.618 1.345 6.422 2.23 1.841.848 3.238 1.98 4.194 3.396.991 1.38 1.486 3.22 1.486 5.521 0 2.017-.372 3.751-1.115 5.202a9.337 9.337 0 0 1-3.078 3.45c-1.31.885-2.796 1.539-4.459 1.964-1.663.389-3.433.584-5.308.584-1.876 0-3.751-.195-5.627-.584a30.893 30.893 0 0 1-5.414-1.646 25.875 25.875 0 0 1-4.777-2.654l3.238-6.316c.318.318.884.743 1.698 1.274.814.495 1.805 1.008 2.973 1.539 1.168.495 2.442.92 3.822 1.274s2.778.531 4.193.531c1.982 0 3.486-.336 4.512-1.009 1.026-.672 1.539-1.628 1.539-2.866 0-1.132-.407-2.017-1.221-2.654-.814-.637-1.946-1.186-3.397-1.646a107.922 107.922 0 0 0-5.149-1.592c-2.371-.672-4.352-1.416-5.945-2.23-1.592-.849-2.777-1.91-3.556-3.184-.779-1.274-1.168-2.867-1.168-4.778 0-2.583.602-4.741 1.805-6.475 1.239-1.77 2.902-3.097 4.99-3.981 2.087-.92 4.405-1.38 6.953-1.38 1.769 0 3.433.194 4.99.584 1.592.389 3.078.902 4.458 1.539a26.188 26.188 0 0 1 3.716 2.07l-3.238 5.945Zm-42.079 27.813h-7.113V95.863c0-2.23-.389-3.857-1.168-4.883-.778-1.027-1.858-1.54-3.238-1.54-.955 0-1.928.248-2.919.743-.956.496-1.823 1.186-2.601 2.07a7.765 7.765 0 0 0-1.699 2.973v16.243h-7.112V83.655h6.422v5.148a10.101 10.101 0 0 1 2.707-3.025c1.097-.85 2.354-1.487 3.769-1.911 1.451-.46 2.973-.69 4.565-.69 1.734 0 3.15.318 4.247.955 1.132.602 1.981 1.433 2.547 2.495.602 1.026 1.009 2.194 1.221 3.503.248 1.31.372 2.637.372 3.981v17.358Zm-44.728.53c-2.229 0-4.246-.371-6.051-1.114-1.805-.779-3.344-1.823-4.618-3.132a14.946 14.946 0 0 1-2.973-4.565 14.997 14.997 0 0 1-1.008-5.467c0-2.654.584-5.078 1.751-7.272 1.204-2.194 2.902-3.946 5.096-5.255 2.23-1.345 4.848-2.017 7.856-2.017 3.043 0 5.644.672 7.803 2.017 2.158 1.31 3.804 3.06 4.936 5.255 1.168 2.158 1.752 4.494 1.752 7.006 0 .425-.018.867-.053 1.327a26.66 26.66 0 0 1-.106 1.062h-21.498c.142 1.416.549 2.654 1.221 3.716.708 1.061 1.592 1.875 2.654 2.441a7.938 7.938 0 0 0 3.503.797 8.218 8.218 0 0 0 3.981-1.009c1.274-.708 2.141-1.628 2.601-2.76l6.105 1.698c-.673 1.416-1.646 2.672-2.92 3.769-1.238 1.097-2.707 1.964-4.405 2.601-1.699.602-3.575.902-5.627.902Zm-7.272-16.667h14.544c-.142-1.415-.549-2.636-1.221-3.662a6.492 6.492 0 0 0-2.548-2.442c-1.061-.602-2.247-.902-3.556-.902-1.274 0-2.442.3-3.503.902-1.027.566-1.876 1.38-2.548 2.442-.637 1.026-1.027 2.247-1.168 3.662ZM308.772 50.16c0-1.805.495-3.38 1.486-4.724 1.026-1.38 2.442-2.442 4.246-3.185 1.805-.743 3.875-1.115 6.211-1.115 1.168 0 2.353.089 3.556.266 1.203.177 2.247.46 3.132.85v-1.487c0-1.77-.531-3.132-1.592-4.087-1.027-.956-2.566-1.433-4.618-1.433a12.02 12.02 0 0 0-4.353.796c-1.38.53-2.831 1.309-4.353 2.335l-2.282-4.67c1.84-1.204 3.716-2.106 5.626-2.708a20.557 20.557 0 0 1 6.105-.902c3.963 0 7.042.99 9.236 2.972 2.229 1.982 3.344 4.813 3.344 8.493v8.864c0 .744.124 1.275.371 1.593.283.318.726.513 1.327.584v5.786a56.1 56.1 0 0 1-1.751.265c-.496.07-.92.106-1.274.106-1.416 0-2.495-.318-3.238-.955a4.111 4.111 0 0 1-1.327-2.336l-.159-1.433a12.173 12.173 0 0 1-4.512 3.61c-1.805.849-3.645 1.273-5.521 1.273-1.84 0-3.503-.371-4.989-1.114-1.451-.779-2.601-1.823-3.45-3.132-.814-1.345-1.221-2.849-1.221-4.512Zm17.304 1.433c.389-.424.708-.849.955-1.274.248-.424.372-.814.372-1.167v-2.814a13.178 13.178 0 0 0-2.76-.796 13.452 13.452 0 0 0-2.813-.318c-1.841 0-3.362.407-4.565 1.22-1.168.779-1.752 1.823-1.752 3.132 0 .708.195 1.38.584 2.017.389.637.955 1.15 1.698 1.54.744.389 1.628.584 2.654.584a8.763 8.763 0 0 0 3.132-.584c1.026-.425 1.858-.938 2.495-1.54Zm-28.923 6.795V30.574h7.113v27.814h-7.113Zm0-31.689v-7.06h7.113v7.06h-7.113Zm-17.009 32.219c-2.265 0-4.3-.371-6.105-1.114-1.804-.779-3.344-1.84-4.618-3.185a15.45 15.45 0 0 1-2.972-4.671 14.998 14.998 0 0 1-1.009-5.468c0-2.618.584-5.007 1.752-7.165 1.203-2.194 2.902-3.946 5.096-5.255 2.194-1.31 4.795-1.964 7.803-1.964s5.591.654 7.749 1.964c2.159 1.309 3.769 3.025 4.831 5.148l-6.954 2.124c-.601-1.026-1.398-1.805-2.388-2.336-.991-.566-2.088-.85-3.291-.85a6.875 6.875 0 0 0-3.716 1.063c-1.097.672-1.964 1.645-2.601 2.919-.637 1.239-.955 2.69-.955 4.352 0 1.628.318 3.08.955 4.353.672 1.239 1.557 2.23 2.654 2.973 1.097.707 2.318 1.061 3.663 1.061a6.65 6.65 0 0 0 2.388-.424 6.962 6.962 0 0 0 2.07-1.168c.602-.496 1.044-1.062 1.327-1.699l6.954 2.123c-.637 1.38-1.575 2.62-2.813 3.716-1.204 1.097-2.637 1.964-4.3 2.601-1.628.602-3.468.902-5.52.902Zm-19.137-.53h-7.112V42.782c0-2.23-.39-3.857-1.168-4.883-.779-1.027-1.858-1.54-3.238-1.54-.955 0-1.929.248-2.919.743-.956.496-1.823 1.186-2.601 2.07a7.765 7.765 0 0 0-1.699 2.973v16.243h-7.113V30.573h6.423v5.15a10.102 10.102 0 0 1 2.707-3.026c1.097-.85 2.353-1.487 3.769-1.911 1.451-.46 2.972-.69 4.565-.69 1.734 0 3.149.318 4.246.955 1.133.602 1.982 1.433 2.548 2.495.602 1.026 1.009 2.194 1.221 3.503.248 1.31.371 2.637.371 3.981v17.358Zm-44.727.53c-2.229 0-4.246-.371-6.051-1.114-1.805-.779-3.344-1.823-4.618-3.132a14.947 14.947 0 0 1-2.973-4.565 14.996 14.996 0 0 1-1.008-5.467c0-2.654.584-5.078 1.752-7.272 1.203-2.194 2.901-3.946 5.095-5.255 2.23-1.345 4.848-2.017 7.856-2.017 3.043 0 5.644.672 7.803 2.017 2.159 1.31 3.804 3.06 4.936 5.255 1.168 2.158 1.752 4.494 1.752 7.006 0 .425-.018.867-.053 1.327a26.66 26.66 0 0 1-.106 1.062h-21.498c.142 1.416.549 2.654 1.221 3.716.708 1.061 1.593 1.875 2.654 2.441a7.94 7.94 0 0 0 3.503.797 8.221 8.221 0 0 0 3.982-1.009c1.273-.708 2.14-1.628 2.6-2.76l6.105 1.698c-.673 1.416-1.646 2.672-2.92 3.77-1.238 1.096-2.707 1.963-4.405 2.6-1.699.602-3.574.902-5.627.902Zm-7.272-16.667h14.544c-.141-1.415-.548-2.636-1.221-3.662a6.492 6.492 0 0 0-2.548-2.442c-1.061-.602-2.247-.902-3.556-.902-1.274 0-2.442.3-3.503.902-1.027.566-1.876 1.38-2.548 2.442-.637 1.026-1.026 2.247-1.168 3.662ZM186.481 19.64h7.113v29.83c0 1.275.213 2.142.637 2.602.425.424 1.009.637 1.752.637.566 0 1.15-.071 1.752-.213a8.407 8.407 0 0 0 1.592-.53l.955 5.414c-.955.46-2.07.814-3.344 1.061-1.274.248-2.424.372-3.45.372-2.229 0-3.963-.584-5.202-1.752-1.203-1.203-1.805-2.901-1.805-5.095V19.64Zm-18.823 39.278c-2.23 0-4.247-.371-6.052-1.114-1.804-.779-3.344-1.823-4.618-3.132a14.944 14.944 0 0 1-2.972-4.565 14.997 14.997 0 0 1-1.009-5.467c0-2.654.584-5.078 1.752-7.272 1.203-2.194 2.902-3.946 5.096-5.255 2.229-1.345 4.848-2.017 7.856-2.017 3.043 0 5.644.672 7.802 2.017 2.159 1.31 3.805 3.06 4.937 5.255 1.168 2.158 1.752 4.494 1.752 7.006 0 .425-.018.867-.053 1.327-.036.425-.071.779-.107 1.062h-21.497c.141 1.416.548 2.654 1.221 3.716.707 1.061 1.592 1.875 2.654 2.441a7.937 7.937 0 0 0 3.503.797 8.22 8.22 0 0 0 3.981-1.009c1.274-.708 2.141-1.628 2.601-2.76l6.104 1.698c-.672 1.416-1.645 2.672-2.919 3.77-1.239 1.096-2.707 1.963-4.406 2.6-1.699.602-3.574.902-5.626.902Zm-7.272-16.667h14.544c-.142-1.415-.549-2.636-1.221-3.662a6.498 6.498 0 0 0-2.548-2.442c-1.062-.602-2.247-.902-3.557-.902-1.273 0-2.441.3-3.503.902-1.026.566-1.875 1.38-2.548 2.442-.637 1.026-1.026 2.247-1.167 3.662Zm-22.378 16.667c-2.264 0-4.299-.371-6.104-1.114-1.805-.779-3.344-1.84-4.618-3.185a15.413 15.413 0 0 1-2.972-4.671 14.977 14.977 0 0 1-1.009-5.468c0-2.618.584-5.007 1.752-7.165 1.203-2.194 2.902-3.946 5.096-5.255 2.194-1.31 4.794-1.964 7.802-1.964s5.592.654 7.75 1.964c2.159 1.309 3.769 3.025 4.83 5.148l-6.953 2.124c-.602-1.026-1.398-1.805-2.389-2.336-.991-.566-2.088-.85-3.291-.85a6.874 6.874 0 0 0-3.715 1.063c-1.097.672-1.964 1.645-2.601 2.919-.637 1.239-.956 2.69-.956 4.352 0 1.628.319 3.08.956 4.353.672 1.239 1.557 2.23 2.654 2.973 1.097.707 2.318 1.061 3.662 1.061.85 0 1.646-.141 2.389-.424a6.987 6.987 0 0 0 2.07-1.168c.602-.496 1.044-1.062 1.327-1.699l6.954 2.123c-.637 1.38-1.575 2.62-2.814 3.716-1.203 1.097-2.636 1.964-4.299 2.601-1.628.602-3.468.902-5.521.902Zm-35.29-28.344 5.839 8.705.425.956.531-.956 5.786-8.705h7.484l-9.661 13.854 9.82 13.96h-7.484l-5.998-8.652-.478-.902-.425.902-5.945 8.652h-7.484l9.82-13.8-9.66-14.014h7.43Z" fill="#D1FD38"/><g clip-path="url(#a)" fill="#D1FD38"><path d="m77.865 19.151-4.035-8.057-4.035-8.05a5.526 5.526 0 0 0-10.116.559l-.586 1.58a38.417 38.417 0 0 0-12.845-2.21 38.775 38.775 0 0 0-27.406 11.312 29.018 29.018 0 0 0-2.318 2.65c2.214.134 4.345.93 6.114 2.337l5.92 4.7a24.58 24.58 0 0 1 17.13-6.924c9.363 0 17.506 5.211 21.671 12.884l7.72-3.264a5.521 5.521 0 0 0 3.026-3.164 5.49 5.49 0 0 0-.24-4.36v.007ZM35.433 74.898c-.986-2.088-1.497-4.795-.378-7.97l.553-1.059c.007-.013.011-.028.018-.041l.009-.009.004-.006.729-1.48c-8.976-3.665-15.302-12.46-15.302-22.727a24.38 24.38 0 0 1 4.08-13.533l-5.83-4.638a5.559 5.559 0 0 0-4.228-1.143 5.58 5.58 0 0 0-3.74 2.286L6.17 31.955.998 39.333A5.488 5.488 0 0 0 .82 45.37a5.527 5.527 0 0 0 5.495 2.565l1.285-.186c.732 4.095 5.85 26.246 31.65 31.867 0 0-.524-.377-1.23-1.085a10.77 10.77 0 0 1-2.585-3.63l-.002-.002ZM85 41.605c0-5.069-1-9.928-2.795-14.387a10.86 10.86 0 0 1-5.034 4.355l-7.797 3.298c.61 2.14.945 4.398.945 6.732 0 13.562-11.025 24.554-24.627 24.554-1.4 0-2.771-.123-4.106-.345l-1.157 2.35a5.524 5.524 0 0 0-.21 4.365 5.55 5.55 0 0 0 3.048 3.145l8.336 3.458 8.336 3.45a5.54 5.54 0 0 0 5.956-1.123 5.507 5.507 0 0 0 1.326-5.895l-.45-1.193a38.104 38.104 0 0 0 6.882-5.433 38.566 38.566 0 0 0 11.35-27.328L85 41.606Z"/><path d="M45.755 59.492c-2.774 0-5.286-.473-7.531-1.417-2.248-.943-4.163-2.229-5.748-3.855a17.121 17.121 0 0 1-3.67-5.665 18.137 18.137 0 0 1-1.287-6.786c0-2.373.418-4.776 1.255-6.95a16.946 16.946 0 0 1 3.634-5.731c1.586-1.648 3.514-2.953 5.781-3.92 2.267-.966 4.812-1.45 7.633-1.45 2.821 0 5.34.484 7.566 1.45 2.224.967 4.117 2.263 5.683 3.887a16.547 16.547 0 0 1 3.567 5.665 18.851 18.851 0 0 1 1.223 6.72 39.6 39.6 0 0 1-.033 1.647c-.024.526-.078.966-.166 1.318H36.904c.132 1.361.463 2.57.991 3.622a8.917 8.917 0 0 0 2.049 2.7 8.912 8.912 0 0 0 2.84 1.713 9.373 9.373 0 0 0 3.304.593 10.24 10.24 0 0 0 4.989-1.285c1.564-.857 2.63-1.987 3.204-3.393l7.6 2.107c-1.278 2.636-3.314 4.8-6.114 6.489-2.797 1.69-6.133 2.536-10.01 2.536l-.002.005Zm8.987-20.818c-.22-2.59-1.18-4.666-2.873-6.226-1.699-1.557-3.756-2.338-6.18-2.338a8.85 8.85 0 0 0-3.335.626 8.74 8.74 0 0 0-2.743 1.745 9.075 9.075 0 0 0-1.95 2.7c-.506 1.053-.802 2.218-.891 3.493h17.972Z"/></g><defs><clipPath id="a"><path fill="#fff" d="M0 0h85v83H0z"/></clipPath></defs></svg>