<svg width="1343" height="330" fill="none" xmlns="http://www.w3.org/2000/svg"><path d="M40.618 238c1.267 11.935 3.753 36.326 3.563 38.412 6.306-1.865 36.036-14.504 36.804-14.927l.014-.011c.004 0-.001.004-.014.011-9.034 7.118-30.154 22.041-32.053 22.278 3.23 2.086 22.724 16.993 32.067 24.185-10.452-4.552-28.9-13.12-36.818-16.835L40.618 330c-1.663-11.856-4.94-36.231-4.75-38.887-2.66 2.846-25.02 12.409-35.868 16.835 10.372-8.061 31.26-24.185 31.83-24.185.712 0-11.402-6.402-31.83-22.289 6.84 1.138 27.237 11.066 36.58 15.887L40.618 238ZM1298.13 0c1.41 13.362 4.17 40.67 3.96 43.005 7.01-2.088 40.04-16.239 40.89-16.712.01-.004.01-.008.02-.012 0 0 0 .004-.02.012-10.03 7.969-33.5 24.676-35.61 24.941 3.59 2.337 25.25 19.026 35.63 27.078-11.61-5.097-32.11-14.69-40.91-18.848L1298.13 103c-1.85-13.273-5.49-40.563-5.28-43.536-2.95 3.186-27.8 13.892-39.85 18.848 11.52-9.026 34.73-27.078 35.37-27.078.79 0-12.67-7.167-35.37-24.953 7.6 1.274 30.26 12.388 40.64 17.786L1298.13 0Z" fill="#FFC961"/></svg>