<svg width="942" height="211" fill="none" xmlns="http://www.w3.org/2000/svg"><g clip-path="url(#a)" fill="#fff"><path d="M408.659 50.084c-43.444 0-78.654 35.217-78.654 78.67s35.21 78.669 78.654 78.669c43.445 0 78.655-35.216 78.655-78.669 0-43.453-35.227-78.67-78.655-78.67Zm-37.564 39.719a55.6 55.6 0 0 1 39.344-16.3c6.456 0 12.632 1.222 18.407 3.281l.873-2.373a7.934 7.934 0 0 1 6.996-5.183 7.924 7.924 0 0 1 7.52 4.363l5.793 11.587 5.793 11.605a7.957 7.957 0 0 1 .349 6.283 7.969 7.969 0 0 1-4.345 4.554l-11.934 5.061-11.917 5.061a7.954 7.954 0 0 1-8.567-1.571 7.957 7.957 0 0 1-1.971-8.481l.837-2.268a24.628 24.628 0 0 0-7.834-1.274c-6.49 0-12.213 2.495-16.68 6.509l-7.084-5.637-10.137-8.062c-2.547-2.025-5.618-3.124-8.776-3.316 1.047-1.344 2.129-2.652 3.333-3.856v.017Zm29.294 94.078c-37.233-8.132-44.439-40.224-45.433-45.878l-1.85.261a7.901 7.901 0 0 1-7.886-3.699 7.906 7.906 0 0 1 .261-8.691l7.416-10.628 7.432-10.627a8.013 8.013 0 0 1 5.374-3.298c2.146-.315 4.362.296 6.072 1.64l10.12 8.08 10.137 8.08a7.912 7.912 0 0 1 2.704 8.271 7.899 7.899 0 0 1-6.508 5.759l-2.46.349c2.059 13.472 15.511 18.847 15.511 18.847l-6.909 13.228c-3.908 11.134 6.019 18.271 6.019 18.271v.035Zm49.377-15.374c-2.966 2.967-6.316 5.567-9.893 7.801l.663 1.745c1.117 2.931.367 6.282-1.901 8.481a7.972 7.972 0 0 1-8.55 1.623l-11.969-4.974-11.952-4.973a7.97 7.97 0 0 1-4.379-4.52 7.948 7.948 0 0 1 .297-6.282l5.705-11.623 5.706-11.622a7.923 7.923 0 0 1 7.502-4.433 7.957 7.957 0 0 1 7.049 5.113l.523 1.396c4.24-4.502 6.822-10.4 6.84-17.067 0-2.041-.332-3.978-.785-5.881l8.287-3.507 11.934-5.061a15.576 15.576 0 0 0 7.206-6.265c2.583 6.422 4.031 13.402 4.031 20.697a55.639 55.639 0 0 1-16.279 39.352h-.035Zm51.593-87.918V59.002h25.037V36.839c0-12.093 3.49-21.255 10.504-27.485C543.896 3.124 554.121 0 567.555 0c2.303 0 4.938.192 7.922.576 2.966.384 5.618.96 7.921 1.728V23.61c-2.111-.768-4.414-1.291-6.909-1.588-2.495-.28-4.799-.436-6.91-.436-5.949 0-10.556 1.152-13.818 3.455-3.263 2.304-4.886 6.719-4.886 13.245V59.02h28.789v21.587h-28.789v127.235h-24.461V80.589h-25.055Zm224.778 126.677c-4.222 2.495-10.067 3.734-17.552 3.734-6.334 0-11.359-1.78-15.11-5.322-3.734-3.543-5.618-9.354-5.618-17.417-6.717 8.063-14.534 13.874-23.467 17.417-8.916 3.542-18.565 5.322-28.928 5.322-6.718 0-13.104-.768-19.141-2.303-6.036-1.536-11.271-3.927-15.685-7.19-4.414-3.264-7.921-7.522-10.503-12.809-2.583-5.27-3.891-11.658-3.891-19.144 0-8.446 1.448-15.357 4.309-20.732 2.879-5.357 6.665-9.737 11.376-13.088 4.694-3.351 10.067-5.898 16.122-7.626a192.887 192.887 0 0 1 18.564-4.311c6.717-1.343 13.103-2.355 19.14-3.019 6.037-.663 11.359-1.622 15.965-2.879 4.606-1.239 8.253-3.071 10.94-5.48 2.687-2.408 4.03-5.898 4.03-10.505 0-5.375-1.012-9.685-3.018-12.949-2.007-3.263-4.607-5.758-7.765-7.486-3.158-1.728-6.717-2.88-10.643-3.456a80.283 80.283 0 0 0-11.655-.872c-10.364 0-19 1.972-25.892 5.898-6.909 3.944-10.643 11.378-11.219 22.32h-24.462c.384-9.214 2.303-16.98 5.758-23.314 3.455-6.335 8.061-11.466 13.819-15.392 5.757-3.926 12.335-6.771 19.715-8.499 7.381-1.727 15.302-2.583 23.747-2.583 6.717 0 13.382.49 20.012 1.431 6.613.96 12.615 2.915 17.989 5.899 5.356 2.967 9.683 7.12 12.946 12.495 3.263 5.357 4.885 12.355 4.885 20.959v76.4c0 5.741.332 9.964 1.012 12.634.663 2.688 2.914 4.014 6.77 4.014 2.111 0 4.606-.384 7.485-1.152v19.005h-.035Zm-39.711-76.296c-3.071 2.286-7.101 3.961-12.091 5.008a184.966 184.966 0 0 1-15.685 2.583 520.95 520.95 0 0 0-16.541 2.286c-5.566.855-10.556 2.234-14.97 4.153-4.414 1.903-8.008 4.625-10.8 8.168-2.774 3.542-4.17 8.359-4.17 14.466 0 4.014.803 7.4 2.443 10.174 1.622 2.775 3.733 5.009 6.333 6.736 2.582 1.728 5.618 2.967 9.073 3.717 3.455.768 7.101 1.135 10.94 1.135 8.06 0 14.97-1.1 20.727-3.281 5.758-2.199 10.452-4.974 14.098-8.307 3.647-3.333 6.334-6.98 8.061-10.889 1.727-3.909 2.6-7.591 2.6-11.029v-24.92h-.018Zm73.961 43.61c2.303 3.734 5.322 6.718 9.073 8.917 3.751 2.199 7.956 3.787 12.667 4.747 4.711.96 9.544 1.431 14.534 1.431 3.838 0 7.869-.297 12.091-.873 4.222-.576 8.096-1.623 11.655-3.176 3.542-1.535 6.473-3.787 8.776-6.771 2.303-2.966 3.455-6.771 3.455-11.378 0-6.335-2.391-11.134-7.189-14.397s-10.782-5.898-17.988-7.923c-7.189-2.024-15.023-3.839-23.45-5.462-8.445-1.623-16.261-3.944-23.45-6.91-7.188-2.967-13.19-7.155-17.988-12.513-4.798-5.375-7.206-12.861-7.206-22.46 0-7.486 1.675-13.908 5.042-19.282 3.35-5.375 7.677-9.738 12.947-13.106 5.269-3.35 11.218-5.846 17.849-7.487 6.612-1.623 13.19-2.443 19.715-2.443 8.445 0 16.209.716 23.311 2.164 7.101 1.431 13.382 3.926 18.843 7.486 5.461 3.543 9.823 8.342 13.103 14.398 3.245 6.055 5.182 13.576 5.758 22.599h-24.462c-.384-4.8-1.64-8.778-3.751-11.954-2.111-3.159-4.798-5.707-8.061-7.626-3.263-1.92-6.857-3.316-10.8-4.171a56.202 56.202 0 0 0-11.952-1.291 72.68 72.68 0 0 0-11.079.872c-3.734.576-7.153 1.588-10.224 3.019-3.071 1.449-5.566 3.368-7.485 5.759-1.919 2.408-2.879 5.514-2.879 9.354 0 4.223 1.483 7.73 4.466 10.505 2.984 2.792 6.77 5.096 11.376 6.911 4.607 1.832 9.789 3.368 15.546 4.607a1228.07 1228.07 0 0 1 17.273 3.891 184.243 184.243 0 0 1 17.989 4.904c5.862 1.92 11.027 4.468 15.546 7.626 4.501 3.176 8.148 7.155 10.94 11.937 2.774 4.799 4.17 10.749 4.17 17.852 0 9.022-1.867 16.509-5.601 22.459-3.751 5.951-8.637 10.75-14.674 14.398-6.036 3.647-12.859 6.195-20.431 7.626-7.572 1.431-15.11 2.164-22.595 2.164-8.252 0-16.121-.873-23.606-2.583-7.485-1.728-14.098-4.555-19.856-8.499-5.757-3.926-10.364-9.109-13.818-15.549-3.455-6.422-5.374-14.24-5.758-23.454h24.462c.192 5.375 1.43 9.93 3.733 13.664l-.017.018ZM942 59.02v21.586h-29.644v92.421c0 2.879.244 5.165.716 6.893.471 1.727 1.395 3.071 2.739 4.031 1.343.96 3.21 1.57 5.618 1.867 2.39.297 5.513.436 9.352.436H942v21.587h-18.704c-6.334 0-11.76-.436-16.261-1.291-4.502-.855-8.148-2.443-10.94-4.747-2.774-2.303-4.851-5.567-6.177-9.772-1.343-4.223-2.006-9.79-2.006-16.701V80.623h-25.317V59.038h25.317v-44.64h24.462V59.02h29.643H942ZM79.44 210.721c-12.092 0-23.032-2.06-32.802-6.196-9.788-4.118-18.128-9.737-25.038-16.84-6.91-7.085-12.23-15.357-15.982-24.763C1.884 153.516 0 143.639 0 133.273s1.815-20.871 5.479-30.365c3.646-9.493 8.915-17.852 15.825-25.042 6.909-7.19 15.301-12.896 25.177-17.137 9.875-4.223 20.954-6.334 33.237-6.334 12.284 0 23.258 2.111 32.959 6.334 9.684 4.223 17.936 9.895 24.758 16.998 6.805 7.102 11.987 15.356 15.546 24.762 3.542 9.407 5.322 19.197 5.322 29.37 0 2.496-.053 4.887-.14 7.19-.105 2.304-.331 4.223-.715 5.759H40.862c.576 5.951 2.007 11.221 4.31 15.828 2.303 4.607 5.27 8.551 8.916 11.797a38.843 38.843 0 0 0 12.37 7.487 40.676 40.676 0 0 0 14.395 2.6c7.677 0 14.917-1.885 21.722-5.619 6.804-3.735 11.463-8.674 13.958-14.834l33.098 9.214c-5.566 11.518-14.446 20.959-26.625 28.358-12.196 7.399-26.712 11.082-43.602 11.082h.035Zm39.134-90.972c-.959-11.326-5.129-20.4-12.527-27.207-7.38-6.805-16.366-10.226-26.904-10.226-5.182 0-10.033.908-14.534 2.74-4.52 1.832-8.497 4.363-11.952 7.626s-6.281 7.19-8.497 11.797-3.507 9.703-3.89 15.252h78.287l.017.018Zm50.947 12.669c0-10.558 1.815-20.522 5.479-29.929 3.647-9.406 8.916-17.66 15.825-24.763 6.909-7.102 15.249-12.756 25.038-16.997 9.788-4.223 20.815-6.334 33.098-6.334 16.505 0 30.551 3.542 42.171 10.645 11.602 7.102 20.291 16.404 26.049 27.921l-37.704 11.518c-3.263-5.567-7.59-9.825-12.946-12.81-5.374-2.966-11.324-4.467-17.849-4.467-5.566 0-10.748 1.1-15.546 3.316a38.332 38.332 0 0 0-12.528 9.214c-3.559 3.944-6.333 8.691-8.34 14.258-2.006 5.567-3.018 11.709-3.018 18.428 0 6.719 1.047 12.861 3.158 18.428 2.111 5.567 4.938 10.366 8.497 14.397 3.542 4.031 7.729 7.155 12.527 9.354 4.798 2.216 9.876 3.316 15.25 3.316 6.909 0 13.277-1.728 19.14-5.183 5.845-3.456 9.927-7.679 12.23-12.67l37.705 11.518c-5.182 11.518-13.714 20.924-25.613 28.218-11.9 7.295-26.189 10.942-42.887 10.942-12.283 0-23.31-2.112-33.098-6.335s-18.128-9.929-25.037-17.119c-6.91-7.19-12.231-15.549-15.982-25.042-3.734-9.494-5.619-19.423-5.619-29.789v-.035Z"/></g><defs><clipPath id="a"><path fill="#fff" d="M0 0h942v211H0z"/></clipPath></defs></svg>