<svg width="57" height="88" fill="none" xmlns="http://www.w3.org/2000/svg"><g clip-path="url(#a)" fill="#4A7EBF"><path d="M31.906 49.345v-5.022L43.99 29.98c1.655 5.289.308 11.147-3.656 15.142a15.063 15.063 0 0 1-8.39 4.185m-12.432-4.26c-3.926-3.996-5.234-9.93-3.618-15.22L27.98 44.096v5.212c-3.156-.456-6.12-1.94-8.467-4.26Zm1.116-23.893 7.351 8.864v7.952L17.82 25.87l2.81-4.756v.039Zm11.277 9.016 7.159-9.283 3.079 5.06-10.238 12.137v-7.952.038Zm0-21.077 5.003 8.218-5.003 6.392V9.093ZM27.98 23.779l-5.119-6.202 5.12-8.484v14.686Zm18.32 1.37s-.077-.077-.077-.115c-.077-.076-.077-.152-.115-.19-.077-.152-.116-.266-.27-.419L31.637.913A1.983 1.983 0 0 0 29.943 0c-.654 0-1.309.342-1.693.913l-9.66 15.903-4.58 7.61s-.116.19-.193.342c-.077.076-.077.152-.116.19 0 .076-.077.076-.077.152-4.156 7.42-2.81 16.74 3.08 22.752 3.078 3.12 7.004 5.022 11.238 5.478v7.267l3.925 4.261V53.34c4.196-.456 8.121-2.32 11.239-5.478 5.965-5.936 7.274-15.219 3.233-22.714"/><path d="m54.614 70.118 2.116-1.712a.763.763 0 0 0 .27-.722c-.077-.267-.27-.495-.539-.571l-4.003-.99-4.002-.989a.672.672 0 0 0-.655.153.684.684 0 0 0-.27.646l.27 4.071.27 4.071c0 .267.192.533.462.647.269.114.577.076.77-.114l1.847-1.484a6.033 6.033 0 0 1 1.308 3.729 5.85 5.85 0 0 1-1.462 3.918l-.655.761c-1.231 1.408-2.925 2.093-4.657 2.093-1.424 0-2.81-.457-3.964-1.446L12.046 57.031c-.346-.267-.77-.457-1.193-.457-.27 0-.5.038-.77.152-.654.305-1.077.913-1.077 1.636v1.142c0 .532.23 1.027.616 1.37l29.096 24.653c2.002 1.712 4.465 2.511 6.928 2.511h.038c2.964 0 5.966-1.255 8.044-3.652l.655-.761a10.348 10.348 0 0 0 2.578-6.848c0-2.36-.808-4.68-2.347-6.582"/><path d="M21.245 73.238c0-.266-.192-.533-.462-.647-.27-.114-.577-.076-.77.114l-2.078 1.713-11.238-9.55c-1.424-1.18-2.117-2.891-2.117-4.603a5.85 5.85 0 0 1 1.463-3.92l.654-.76c1.231-1.408 2.925-2.093 4.657-2.13 1.424 0 2.81.456 3.964 1.445l23.208 19.67c.346.266.77.418 1.193.418.27 0 .539-.038.77-.152.654-.304 1.078-.951 1.078-1.636v-1.141a1.74 1.74 0 0 0-.655-1.37l-22.63-19.175a10.613 10.613 0 0 0-6.928-2.55 10.764 10.764 0 0 0-8.083 3.653l-.654.761a10.349 10.349 0 0 0-2.579 6.848H0a10.42 10.42 0 0 0 3.695 7.99l10.66 9.017-1.808 1.484a.763.763 0 0 0-.27.723c.078.266.27.494.54.57l4.002.99 3.964 1.027c.231.076.5 0 .693-.153.193-.152.27-.38.27-.608l-.27-4.071-.27-4.071.04.114Z"/></g><defs><clipPath id="a"><path fill="#fff" d="M0 0h57v88H0z"/></clipPath></defs></svg>