<svg width="73" height="74" fill="none" xmlns="http://www.w3.org/2000/svg"><g clip-path="url(#a)" fill="#4A7EBF"><path d="M19.572 25.06c.077 2.966.618 5.932 1.544 8.746A24.117 24.117 0 0 0 16.947 37a21.03 21.03 0 0 1-4.671-11.94h7.296Zm1.544-11.294c-.926 2.852-1.467 5.78-1.544 8.746h-7.296a20.926 20.926 0 0 1 4.671-11.94 24.122 24.122 0 0 0 4.17 3.194Zm.927-2.396a20.55 20.55 0 0 1-3.359-2.662 21.834 21.834 0 0 1 9.188-5.324c-2.47 2.244-4.478 4.944-5.79 7.986m23.78-.038c-1.313-3.004-3.282-5.704-5.791-7.948a22.052 22.052 0 0 1 9.11 5.248 20.258 20.258 0 0 1-3.32 2.662m2.51 11.256a29.897 29.897 0 0 0-1.583-8.822 23.839 23.839 0 0 0 4.13-3.195c2.819 3.423 4.479 7.606 4.71 12.017h-7.257Zm-1.583 11.332c.965-2.852 1.467-5.818 1.583-8.822h7.296a20.93 20.93 0 0 1-4.71 12.016 25.404 25.404 0 0 0-4.13-3.194m-.966 2.396a20.258 20.258 0 0 1 3.32 2.661c-2.548 2.472-5.674 4.26-9.11 5.248a23.329 23.329 0 0 0 5.79-7.947m-18.028 7.947a21.67 21.67 0 0 1-9.187-5.324c1.042-.988 2.161-1.901 3.358-2.662a23.846 23.846 0 0 0 5.79 7.986m4.865-11.37V44.53c-3.706-2.091-6.563-5.4-8.377-9.544a22.146 22.146 0 0 1 8.377-2.13m0-7.795v5.247c-3.204.152-6.37.951-9.265 2.282a27.739 27.739 0 0 1-1.274-7.53h10.539Zm0-7.758v5.248h-10.54a27.739 27.739 0 0 1 1.275-7.53 25.136 25.136 0 0 0 9.265 2.282Zm0-14.26v11.712a21.51 21.51 0 0 1-8.377-2.167c1.814-4.145 4.67-7.453 8.377-9.545Zm2.586 11.712V3.042c3.706 2.092 6.563 5.4 8.377 9.507-2.625 1.293-5.443 2.015-8.377 2.205Zm0 7.796v-5.248c3.204-.152 6.37-.95 9.227-2.32a28.258 28.258 0 0 1 1.273 7.568h-10.5Zm0 7.757V25.06h10.54a28.257 28.257 0 0 1-1.275 7.567 24.456 24.456 0 0 0-9.265-2.32Zm0 14.222V32.817c2.896.152 5.752.913 8.377 2.168-1.814 4.107-4.67 7.415-8.377 9.506m-1.274 3.08c13.435 0 24.32-10.647 24.32-23.804C58.292 10.61 47.407 0 33.972 0 20.537 0 9.651 10.648 9.651 23.805c0 13.119 10.886 23.766 24.32 23.804M46.75 69.931a15.594 15.594 0 0 1-9.459 1.293l-16.83-4.145a7.836 7.836 0 0 0-5.56.723l-1.351.76V54.721a15.305 15.305 0 0 1 15.094-1.103l1.004.494a13.232 13.232 0 0 0 5.636 1.255h9.844c2.818 0 5.289 1.94 5.906 4.64H36.25v2.509h17.488V61.26a8.75 8.75 0 0 0-.193-1.75l10.847-5.36c1.583-.876 3.552-.61 4.864.57L46.634 69.93h.115Zm-44.164 1.56V50.803h8.416v19.241h-.077l.077.19v1.255H2.586ZM63.31 51.906l-10.577 5.247c-1.544-2.662-4.4-4.297-7.528-4.297h-9.844c-1.583 0-3.127-.342-4.555-.989l-1.004-.494a18.036 18.036 0 0 0-16.213.418v-3.498H0v25.744h13.589v-2.51l2.625-1.445c1.12-.608 2.393-.798 3.628-.494l16.909 4.145h.077a17.94 17.94 0 0 0 3.204.304c2.78 0 5.52-.608 8.03-1.825h.077l24.938-16.808-.617-.989c-1.892-3.042-5.868-4.107-9.072-2.433"/></g><defs><clipPath id="a"><path fill="#fff" d="M0 0h73v74H0z"/></clipPath></defs></svg>