<svg width="54" height="67" fill="none" xmlns="http://www.w3.org/2000/svg"><path d="M42.711 9.937c.26-.596 0-1.303-.628-1.601l-2.735-1.303 9.759-4.059 1.885 10.872-2.772-1.638a1.247 1.247 0 0 0-.962-.149c-.332.075-.591.298-.776.559-6.765 11.244-15.6 21.223-33.601 20.887 9.722-2.01 23.029-7.744 29.867-23.605m-41.4 22.228C.682 32.09.09 32.538.017 33.17a1.21 1.21 0 0 0 .961 1.378C5.673 35.553 9.887 36 13.731 36c18.187 0 27.613-10.202 34.304-21.037l4.029 2.383c.406.26.96.224 1.367 0a1.24 1.24 0 0 0 .555-1.228l-2.587-15.08a1.308 1.308 0 0 0-.629-.893c-.333-.187-.74-.186-1.11-.038L35.874 5.841c-.444.186-.74.633-.776 1.117 0 .484.258.931.702 1.155l4.14 1.973C28.849 33.989 2.494 32.239 1.348 32.165m12.101 20.888v8.895c0 1.423-.876 2.704-1.865 2.704H5.492c-.99 0-1.865-1.246-1.865-2.704v-8.895c0-1.424.875-2.705 1.865-2.705h6.092c.99 0 1.865 1.246 1.865 2.705ZM5.454 48C2.941 48 1 50.206 1 53.053v8.895C1 64.794 2.98 67 5.454 67h6.092C14.058 67 16 64.758 16 61.948v-8.895C16 50.206 14.02 48 11.546 48H5.454Zm25.964-3.816v17.632c0 1.46-.873 2.775-1.86 2.775h-6.115c-.988 0-1.86-1.314-1.86-2.775V44.184c0-1.46.872-2.775 1.86-2.775h6.114c.988 0 1.86 1.315 1.86 2.775ZM23.443 39C20.936 39 19 41.263 19 44.184v17.632C19 64.736 20.974 67 23.443 67h6.114C32.064 67 34 64.7 34 61.816V44.184C34 41.264 32.026 39 29.557 39h-6.114Zm27.182 22.851c0 1.45-.815 2.756-1.736 2.756h-5.707c-.921 0-1.736-1.305-1.736-2.756V34.15c0-1.45.815-2.756 1.736-2.756h5.707c.921 0 1.736 1.27 1.736 2.756v27.7ZM48.853 29h-5.706C40.807 29 39 31.248 39 34.149V61.85c0 2.902 1.843 5.15 4.147 5.15h5.706C51.193 67 53 64.752 53 61.851V34.15c0-2.902-1.843-5.15-4.147-5.15Z" fill="#4A7EBF"/><path d="M51 31H41v34h10V31Zm-19 9H21v25h11V40Zm-18 9H3v17h11V49Zm-4-16.725s25.043-4.69 31.536-22.076l-3.673-3.896L50.365 1 53 16.15l-5.157-2.85S30.48 41.006 10 32.312" fill="#4A7EBF"/></svg>