<svg width="93" height="93" fill="none" xmlns="http://www.w3.org/2000/svg"><g clip-path="url(#a)"><path d="M70.787 70.021a32.776 32.776 0 0 1-5.847 4.624l.377 1.038c.66 1.746.236 3.728-1.132 5.002-1.368 1.274-3.348 1.651-5.046.944l-7.074-2.926-7.074-2.925c-1.18-.472-2.122-1.463-2.594-2.69-.471-1.226-.377-2.548.189-3.727l3.348-6.89 3.396-6.888c.801-1.699 2.546-2.69 4.433-2.642a4.655 4.655 0 0 1 4.15 3.02l.33.849c2.5-2.643 4.056-6.134 4.056-10.098 0-1.227-.189-2.359-.472-3.491l4.905-2.076 7.027-2.973c1.792-.755 3.254-2.076 4.244-3.728 1.51 3.775 2.405 7.927 2.405 12.221 0 9.06-3.678 17.317-9.62 23.262M41.594 79.08C19.62 74.268 15.327 55.3 14.761 51.95l-1.084.141c-1.84.283-3.679-.613-4.67-2.17-.99-1.604-.895-3.633.142-5.143l4.386-6.276 4.386-6.275a4.784 4.784 0 0 1 3.16-1.935 4.667 4.667 0 0 1 3.584.991l5.99 4.766 5.989 4.765c1.462 1.18 2.075 3.067 1.603 4.907a4.593 4.593 0 0 1-3.867 3.398l-1.462.236c1.226 7.974 9.149 11.135 9.149 11.135l-4.103 7.833c-2.31 6.558 3.537 10.805 3.537 10.805m-17.213-55.63a32.824 32.824 0 0 1 23.25-9.626c3.82 0 7.45.708 10.894 1.935l.518-1.416c.66-1.746 2.264-2.972 4.15-3.067 1.84-.094 3.632.897 4.434 2.595l3.442 6.842 3.396 6.842c.566 1.132.66 2.5.188 3.727-.424 1.227-1.367 2.17-2.546 2.69l-7.027 2.972-7.027 2.973c-1.698.708-3.726.377-5.046-.944-1.368-1.274-1.792-3.255-1.18-5.001l.472-1.321c-1.462-.472-3.018-.755-4.621-.755-3.82 0-7.216 1.462-9.857 3.869l-4.197-3.35-5.99-4.766c-1.509-1.18-3.3-1.84-5.187-1.982a22.68 22.68 0 0 1 1.98-2.264M46.5 0C20.798 0 0 20.808 0 46.524c0 25.715 20.798 46.523 46.5 46.523S93 72.24 93 46.524C93 20.808 72.155 0 46.5 0Z" fill="#4A7EBF"/></g><defs><clipPath id="a"><path fill="#fff" d="M0 0h93v93H0z"/></clipPath></defs></svg>