<svg width="126" height="104" fill="none" xmlns="http://www.w3.org/2000/svg"><g clip-path="url(#a)"><path d="M100.272 48.913c0 .845 0 1.636-.053 2.48-.106 1.003-.212 1.953-.423 2.902-.95 4.222-3.17 7.915-6.075 11.24-3.963 4.537-8.136 8.917-12.204 13.349-4.28 4.643-8.506 9.34-12.838 13.93-.74.791-1.796 2.058-3.328 2.216-1.11.105-1.85-.37-2.589-1.16-.687-.687-.898-2.428-.634-3.483.264-1.161 1.215-2.216 2.06-3.166 1.955-2.164 3.91-4.274 5.865-6.438l2.853-3.165c1.003-1.108 3.909-3.536 2.271-5.171-1.532-1.53-3.698 1.424-4.596 2.427-.95 1.055-1.902 2.11-2.906 3.113-4.49 4.802-8.98 9.709-13.577 14.352-2.113 2.11-3.75 1.952-5.177.106-1.374-1.742-1.11-3.483.898-5.646l15.373-16.78c.74-.791 1.321-1.319 1.48-2.48.105-.897-.212-1.688-1.057-1.794-1.426-.21-2.008.37-2.906 1.32-6.022 6.595-12.045 13.138-18.068 19.734-2.007 2.163-4.173 2.11-5.652-.053-1.11-1.636-.793-3.43 1.003-5.382a6912.983 6912.983 0 0 1 18.385-20.05c1.004-1.109 1.796-2.322.581-3.536-1.162-1.214-2.166-.158-3.064.844-4.702 5.171-9.456 10.29-14.158 15.46-.634.686-1.268 1.372-2.06 1.847-1.744 1.055-3.91.106-4.65-1.9-.74-2.057.212-3.376 1.427-4.643 7.819-8.495 15.69-17.043 23.456-25.644l3.223 3.536c1.11 1.213 2.536 1.794 3.962 1.794 1.427 0 2.853-.58 3.963-1.794l.633-.686c1.057-1.161 1.638-2.691 1.638-4.327 0-1.53-.528-2.955-1.479-4.116l-7.132-7.862-1.374-1.53 1.902-2.058c2.959-2.427 5.547-3.324 7.713-3.43 3.963-.369 7.45 1.847 7.45 1.847l2.113-2.269 6.71-7.281 20.867 22.741-9.721 10.606h-.105Zm-10.25 30.288c-.74 2.005-2.905 2.954-4.648 1.899l-.476-.317a213.495 213.495 0 0 0 4.65-5.118c.686.95 1.003 2.058.475 3.535ZM85.956 91.97c-1.427 2.163-3.646 2.216-5.653 0-1.004-1.056-1.955-2.164-2.959-3.219 1.638-1.741 3.276-3.43 4.86-5.171.899 1.002 1.85 2.005 2.748 3.008 1.743 1.952 2.06 3.746.95 5.382m-9.931 5.698c-1.427 1.847-3.064 2.005-5.178-.105-.317-.317-.634-.686-.95-1.003a8.648 8.648 0 0 0 1.32-1.108c1.215-1.266 2.377-2.533 3.593-3.799.105.158.264.264.37.422 1.954 2.163 2.218 3.905.897 5.646m-13.788 1.372c-.74.739-1.48 1.214-2.589 1.161-1.532-.106-2.589-1.425-3.328-2.216-.476-.475-.898-.95-1.374-1.478 1.057-.633 2.166-1.477 3.381-2.585.74 1.266 1.004 2.058 2.43 2.955.635.422 1.321.685 2.061.897a2.82 2.82 0 0 1-.581 1.266Zm-30.96-28.388c-2.905-3.324-5.071-7.017-6.022-11.239-.212-.95-.37-1.9-.423-2.849-.053-.791-.106-1.636-.053-2.48l-9.72-10.606L35.924 20.79l6.71 7.281.422.475 3.223.37.211-.581c1.268-.95 6.551-4.169 13.63 1.741l9.352 10.237c.475.527.74 1.213.74 1.952 0 .739-.265 1.425-.74 1.952l-.634.686c-1.004 1.056-2.536 1.056-3.54 0l-9.562-10.447-2.325 1.794L56 39.52l1.11 1.214c-1.11 1.213-2.22 2.374-3.276 3.588a2.858 2.858 0 0 0-.528.95.728.728 0 0 0-.159.21C46.755 52.5 40.309 59.465 33.864 66.536c-1.268 1.424-2.113 2.85-2.536 4.274m57.004-59.15-8.717 9.498a92.166 92.166 0 0 0-1.32-.158c-3.118-1.372-8.665-2.322-15.163 3.113l-.158.158-2.114 2.322c-8.03-5.963-14.422-2.27-16.219-1.003l-8.03-8.706-25.253 27.543 9.563 10.448c.053 4.696 1.585 9.498 4.543 14.3 1.215 2.004 2.642 3.851 4.174 5.54a667.025 667.025 0 0 0 5.97 6.49c-2.167 3.43-1.216 6.226 1.003 8.811 2.325 2.639 4.49 2.955 7.608 1.953h.053c2.271 3.746 4.332 5.54 6.603 5.698.951 1.003 1.85 2.005 2.8 3.008 2.8 2.955 7.027 3.588 10.408 1.477 1.426-.897 1.69-1.635 2.43-2.955 5.706 5.224 9.457 5.277 13.947-2.005h.106c3.17.95 5.283.634 7.608-2.005 2.377-2.69 3.275-5.698.633-9.392l-.686-1.002c1.901.052 3.38-1.267 4.226-2.428 2.219-3.113 2.06-6.331-.264-9.55a181.448 181.448 0 0 1 3.117-3.377c1.532-1.688 2.958-3.535 4.174-5.54 2.958-4.855 4.49-9.656 4.543-14.3l9.562-10.447-25.253-27.544.106.053Z" fill="#4A7EBF"/><path d="M100.272 48.913c0 .845 0 1.636-.053 2.48-.106 1.003-.212 1.953-.423 2.902-.95 4.222-3.17 7.915-6.075 11.24-3.963 4.537-8.136 8.917-12.204 13.349-4.28 4.643-8.506 9.34-12.838 13.93-.74.791-1.796 2.058-3.328 2.216-1.11.105-1.85-.37-2.589-1.16-.687-.687-.898-2.428-.634-3.483.264-1.161 1.215-2.216 2.06-3.166 1.955-2.164 3.91-4.274 5.865-6.438l2.853-3.165c1.003-1.108 3.909-3.536 2.271-5.171-1.532-1.53-3.698 1.424-4.596 2.427-.95 1.055-1.902 2.11-2.906 3.113-4.49 4.802-8.98 9.709-13.577 14.352-2.113 2.11-3.75 1.952-5.177.106-1.374-1.742-1.11-3.483.898-5.646l15.373-16.78c.74-.791 1.321-1.319 1.48-2.48.105-.897-.212-1.688-1.057-1.794-1.426-.21-2.008.37-2.906 1.32-6.022 6.595-12.045 13.138-18.068 19.734-2.007 2.163-4.173 2.11-5.652-.053-1.11-1.636-.793-3.43 1.003-5.382a6912.983 6912.983 0 0 1 18.385-20.05c1.004-1.109 1.796-2.322.581-3.536-1.162-1.214-2.166-.158-3.064.844-4.702 5.171-9.456 10.29-14.158 15.46-.634.686-1.268 1.372-2.06 1.847-1.744 1.055-3.91.106-4.65-1.9-.74-2.057.212-3.376 1.427-4.643 7.819-8.495 15.69-17.043 23.456-25.644l3.223 3.536c1.11 1.213 2.536 1.794 3.962 1.794 1.427 0 2.853-.58 3.963-1.794l.633-.686c1.057-1.161 1.638-2.691 1.638-4.327 0-1.53-.528-2.955-1.479-4.116l-7.132-7.862-1.374-1.53 1.902-2.058c2.959-2.427 5.547-3.324 7.713-3.43 3.963-.369 7.45 1.847 7.45 1.847l2.113-2.269 6.71-7.281 20.867 22.741-9.721 10.606h-.105Zm-10.25 30.288c-.74 2.005-2.905 2.954-4.648 1.899l-.476-.317a213.495 213.495 0 0 0 4.65-5.118c.686.95 1.003 2.058.475 3.535ZM85.956 91.97c-1.427 2.163-3.646 2.216-5.653 0-1.004-1.056-1.955-2.164-2.959-3.219 1.638-1.741 3.276-3.43 4.86-5.171.899 1.002 1.85 2.005 2.748 3.008 1.743 1.952 2.06 3.746.95 5.382h.054Zm-9.985 5.698c-1.427 1.847-3.064 2.005-5.178-.105-.317-.317-.634-.686-.95-1.003a8.648 8.648 0 0 0 1.32-1.108c1.215-1.266 2.377-2.533 3.593-3.799.105.158.264.264.37.422 1.954 2.163 2.218 3.905.897 5.646l-.052-.053Zm-13.736 1.425c-.74.739-1.48 1.214-2.589 1.161-1.532-.106-2.589-1.425-3.328-2.216-.476-.475-.898-.95-1.374-1.478 1.057-.633 2.166-1.477 3.381-2.585.74 1.266 1.004 2.058 2.43 2.955.635.422 1.321.685 2.061.897a2.82 2.82 0 0 1-.581 1.266Zm-30.96-28.388c-2.905-3.324-5.071-7.017-6.022-11.239-.212-.95-.37-1.9-.423-2.849-.053-.791-.106-1.636-.053-2.48l-9.72-10.606L35.924 20.79l6.71 7.281.422.475 3.223.37.211-.581c1.268-.95 6.551-4.169 13.63 1.741l9.352 10.237c.475.527.74 1.213.74 1.952 0 .739-.265 1.425-.74 1.952l-.634.686c-1.004 1.056-2.536 1.056-3.54 0l-9.562-10.447-2.325 1.794L56 39.52l1.11 1.214c-1.11 1.213-2.22 2.374-3.276 3.588a2.858 2.858 0 0 0-.528.95.728.728 0 0 0-.159.21C46.755 52.5 40.309 59.465 33.864 66.536c-1.268 1.424-2.113 2.85-2.536 4.274l-.053-.106Zm57.057-59.044-8.717 9.498a92.166 92.166 0 0 0-1.32-.158c-3.118-1.372-8.665-2.322-15.163 3.113l-.158.158-2.114 2.322c-8.03-5.963-14.422-2.27-16.219-1.003l-8.03-8.706-25.253 27.543 9.563 10.448c.053 4.696 1.585 9.498 4.543 14.3 1.215 2.004 2.642 3.851 4.174 5.54a667.025 667.025 0 0 0 5.97 6.49c-2.167 3.43-1.216 6.226 1.003 8.811 2.325 2.639 4.49 2.955 7.608 1.953h.053c2.271 3.746 4.332 5.54 6.603 5.698.951 1.003 1.85 2.005 2.8 3.008 2.8 2.955 7.027 3.588 10.408 1.477 1.426-.897 1.69-1.635 2.43-2.955 5.706 5.224 9.457 5.277 13.947-2.005h.106c3.17.95 5.283.634 7.608-2.005 2.377-2.69 3.275-5.698.633-9.392l-.686-1.002c1.901.052 3.38-1.267 4.226-2.428 2.219-3.113 2.06-6.331-.264-9.55a181.448 181.448 0 0 1 3.117-3.377c1.532-1.688 2.958-3.535 4.174-5.54 2.958-4.855 4.49-9.656 4.543-14.3l9.562-10.447-25.253-27.544.106.053Z" stroke="#4A7EBF" stroke-width=".25" stroke-linecap="round" stroke-linejoin="round"/><path d="M44.113 16.093c1.374 1.478 1.374 3.905 0 5.382L14.106 54.242c-1.374 1.478-3.593 1.478-4.914 0l-5.705-6.226c-1.374-1.477-1.374-3.905 0-5.382L33.44 9.814c1.374-1.477 3.593-1.477 4.914 0l5.705 6.226.053.053Z" fill="#fff"/><path d="M44.113 16.093c1.374 1.478 1.374 3.905 0 5.382L14.106 54.242c-1.374 1.478-3.593 1.478-4.914 0l-5.705-6.226c-1.374-1.477-1.374-3.905 0-5.382L33.44 9.814c1.374-1.477 3.593-1.477 4.914 0l5.705 6.226.053.053Z" stroke="#4A7EBF" stroke-width=".25" stroke-linecap="round" stroke-linejoin="round"/><path d="m44.113 16.093-1.215 1.372c.317.37.529.844.529 1.372 0 .528-.159.95-.529 1.372L12.891 52.976c-.317.37-.793.58-1.215.58-.423 0-.898-.158-1.215-.58L4.755 46.75c-.37-.37-.528-.844-.528-1.372 0-.528.158-.95.528-1.32L34.71 11.187c.317-.37.792-.58 1.215-.58.475 0 .898.158 1.215.58l5.706 6.226 1.215-1.371 1.215-1.32-5.706-6.226c-1.004-1.108-2.377-1.688-3.698-1.688-1.32 0-2.694.58-3.698 1.688L2.219 41.262C1.215 42.37.687 43.848.687 45.325c0 1.478.528 2.955 1.532 4.063l5.706 6.226c1.004 1.108 2.377 1.689 3.698 1.689 1.32 0 2.694-.58 3.698-1.689l30.008-32.767c1.003-1.108 1.532-2.585 1.532-4.063a5.944 5.944 0 0 0-1.532-4.01l-1.216 1.32Z" fill="#4A7EBF"/><path d="m44.113 16.093-1.215 1.372c.317.37.529.844.529 1.372 0 .528-.159.95-.529 1.372L12.891 52.976c-.317.37-.793.58-1.215.58-.423 0-.898-.158-1.215-.58L4.755 46.75c-.37-.37-.528-.844-.528-1.372 0-.528.158-.95.528-1.32L34.71 11.187c.317-.37.792-.58 1.215-.58.475 0 .898.158 1.215.58l5.706 6.226 1.215-1.371 1.215-1.32-5.706-6.226c-1.004-1.108-2.377-1.688-3.698-1.688-1.32 0-2.694.58-3.698 1.688L2.219 41.262C1.215 42.37.687 43.848.687 45.325c0 1.478.528 2.955 1.532 4.063l5.706 6.226c1.004 1.108 2.377 1.689 3.698 1.689 1.32 0 2.694-.58 3.698-1.689l30.008-32.767c1.003-1.108 1.532-2.585 1.532-4.063a5.944 5.944 0 0 0-1.532-4.01l-1.216 1.32Z" stroke="#4A7EBF" stroke-width=".25" stroke-linecap="round" stroke-linejoin="round"/><path d="M81.887 9.92c-1.374 1.478-1.374 3.905 0 5.382l30.007 32.767c1.374 1.478 3.593 1.478 4.913 0l5.706-6.226c1.374-1.477 1.374-3.904 0-5.382L92.558 3.694c-1.373-1.477-3.592-1.477-4.913 0L81.94 9.92h-.052Z" fill="#fff"/><path d="M81.887 9.92c-1.374 1.478-1.374 3.905 0 5.382l30.007 32.767c1.374 1.478 3.593 1.478 4.913 0l5.706-6.226c1.374-1.477 1.374-3.904 0-5.382L92.558 3.694c-1.373-1.477-3.592-1.477-4.913 0L81.94 9.92h-.052Z" stroke="#4A7EBF" stroke-width=".25" stroke-linecap="round" stroke-linejoin="round"/><path d="M81.887 9.92 80.672 8.6c-1.004 1.108-1.532 2.586-1.532 4.063 0 1.478.528 2.902 1.532 4.063l30.007 32.767c1.004 1.108 2.378 1.689 3.698 1.689 1.321 0 2.695-.58 3.699-1.689l5.705-6.226c1.004-1.108 1.532-2.586 1.532-4.063 0-1.477-.528-2.955-1.532-4.063L93.774 2.321C92.77 1.213 91.396.633 90.076.633c-1.321 0-2.695.58-3.699 1.688l-5.705 6.227 1.215 1.319 1.215 1.372 5.706-6.227c.317-.369.792-.58 1.215-.58.475 0 .898.158 1.215.58l30.007 32.767c.37.37.529.845.529 1.32 0 .475-.159.95-.529 1.372l-5.705 6.226c-.317.37-.793.58-1.215.58-.423 0-.899-.158-1.216-.58L83.102 13.93c-.37-.37-.528-.845-.528-1.372 0-.528.158-.95.528-1.372l-1.215-1.372v.105Z" fill="#4A7EBF"/><path d="M81.887 9.92 80.672 8.6c-1.004 1.108-1.532 2.586-1.532 4.063 0 1.478.528 2.902 1.532 4.063l30.007 32.767c1.004 1.108 2.378 1.689 3.698 1.689 1.321 0 2.695-.58 3.699-1.689l5.705-6.226c1.004-1.108 1.532-2.586 1.532-4.063 0-1.477-.528-2.955-1.532-4.063L93.774 2.321C92.77 1.213 91.396.633 90.076.633c-1.321 0-2.695.58-3.699 1.688l-5.705 6.227 1.215 1.319 1.215 1.372 5.706-6.227c.317-.369.792-.58 1.215-.58.475 0 .898.158 1.215.58l30.007 32.767c.37.37.529.845.529 1.32 0 .475-.159.95-.529 1.372l-5.705 6.226c-.317.37-.793.58-1.215.58-.423 0-.899-.158-1.216-.58L83.102 13.93c-.37-.37-.528-.845-.528-1.372 0-.528.158-.95.528-1.372l-1.215-1.372v.105Z" stroke="#4A7EBF" stroke-width=".25" stroke-linecap="round" stroke-linejoin="round"/></g><defs><clipPath id="a"><path fill="#fff" d="M0 0h126v104H0z"/></clipPath></defs></svg>