<svg width="102" height="112" fill="none" xmlns="http://www.w3.org/2000/svg"><g clip-path="url(#a)" fill="#4A7EBF"><path d="M15.158 71.22 0 97.234l17.722-.909L25.756 112l14.018-24.082c-10.086-2.555-18.69-8.576-24.617-16.64m71.572-.171c-5.87 8.122-14.531 14.142-24.56 16.755L76.244 112l8.034-15.619L102 97.29 86.729 71.107ZM72.825 42.255l-9.06 8.804c-.4.397-.57.909-.457 1.476l2.166 12.439c.228 1.363-1.197 2.385-2.45 1.703l-11.283-5.85c-.513-.283-1.083-.283-1.539 0l-11.282 5.85c-1.197.625-2.679-.397-2.45-1.703l2.165-12.439c.114-.51-.114-1.079-.456-1.476l-9.118-8.803a1.67 1.67 0 0 1 .912-2.84l12.593-1.818c.513-.113 1.026-.454 1.254-.908l5.642-11.303a1.685 1.685 0 0 1 3.02 0l5.64 11.303c.229.51.685.795 1.255.908l12.593 1.818c1.368.17 1.88 1.874.912 2.84M50.886 14.027c-17.665 0-31.968 14.142-31.968 31.635 0 17.493 14.303 31.635 31.968 31.635s31.968-14.142 31.968-31.635c0-17.493-14.303-31.635-31.968-31.635Z"/><path d="M50.886 2.045v2.044A42.24 42.24 0 0 1 67.24 7.383a42.906 42.906 0 0 1 18.52 15.051c4.558 6.645 7.18 14.653 7.18 23.286a41.3 41.3 0 0 1-3.305 16.187c-3.191 7.44-8.548 13.8-15.215 18.288a42.197 42.197 0 0 1-23.477 7.1A42.239 42.239 0 0 1 34.589 84c-7.522-3.18-13.961-8.406-18.52-15.05-4.558-6.646-7.18-14.654-7.18-23.287a41.3 41.3 0 0 1 3.305-16.186c3.191-7.44 8.548-13.802 15.215-18.288 6.724-4.487 14.759-7.1 23.477-7.1V0c-6.382 0-12.422 1.306-17.95 3.578-8.262 3.465-15.328 9.258-20.286 16.527-4.957 7.27-7.863 16.073-7.863 25.558 0 6.305 1.31 12.325 3.647 17.777 3.476 8.179 9.345 15.165 16.753 20.106 7.35 4.94 16.24 7.78 25.813 7.78 6.382 0 12.422-1.249 17.95-3.577 8.262-3.465 15.328-9.258 20.286-16.528A45.224 45.224 0 0 0 97.1 45.663a45.086 45.086 0 0 0-3.647-17.777A46.16 46.16 0 0 0 76.698 7.781C69.35 2.84 60.46 0 50.886 0v2.045Z"/></g><defs><clipPath id="a"><path fill="#fff" d="M0 0h102v112H0z"/></clipPath></defs></svg>