<svg width="98" height="97" fill="none" xmlns="http://www.w3.org/2000/svg"><path d="M49 97c27.035 0 49-21.704 49-48.5S76.084 0 49 0 0 21.704 0 48.5 21.916 97 49 97Z" fill="#4A7EBF"/><path d="M27.05 59.95c0 5.6 2.015 10.05 5.997 13.25 3.983 3.2 9.489 4.8 16.47 4.8 6.98 0 12.142-1.65 15.878-4.9C69.132 69.85 71 65.75 71 60.8c0-4.95-1.574-8.5-4.72-11.05-2.065-1.65-5.113-2.95-9.193-3.9l-9.34-2.25c-3.59-.85-5.95-1.6-7.03-2.25-1.721-.95-2.606-2.4-2.606-4.3 0-2.1.885-3.75 2.605-4.9 1.77-1.15 4.081-1.75 7.03-1.75 2.655 0 4.818.45 6.588 1.35 2.655 1.35 4.08 3.7 4.277 6.9H69.28c-.197-5.75-2.311-10.1-6.293-13.15-3.983-3.05-8.85-4.5-14.503-4.5-6.785 0-11.897 1.6-15.437 4.8-3.49 3.2-5.26 7.2-5.26 12.05 0 5.3 1.77 9.2 5.358 11.7 2.114 1.5 5.998 2.85 11.651 4.15L50.55 55c3.343.75 5.8 1.6 7.374 2.55 1.573.95 2.31 2.35 2.31 4.15 0 3.05-1.573 5.15-4.719 6.25-1.672.6-3.834.9-6.49.9-4.473 0-7.62-1.1-9.438-3.35-.984-1.2-1.672-3.05-2.016-5.55H27h.05Z" fill="#fff"/><path d="M55 14H43v10h12V14Zm0 59H43v9h12v-9Z" fill="#fff"/></svg>