<svg width="158" height="154" fill="none" xmlns="http://www.w3.org/2000/svg"><path fill="#D1FD38" d="M0 0h154v154H0z"/><path d="M38.431 84.948c-.107-.107-.307-.253-.598-.437a5.874 5.874 0 0 0-1.035-.529 9.384 9.384 0 0 0-1.311-.437 5.172 5.172 0 0 0-1.449-.207c-.859 0-1.51.161-1.955.483-.43.322-.644.774-.644 1.357 0 .445.138.797.414 1.058.276.26.69.483 1.242.667.552.184 1.242.383 2.07.598 1.073.26 2.001.583 2.783.966.797.368 1.403.859 1.817 1.472.43.598.644 1.395.644 2.392 0 .874-.161 1.625-.483 2.254a4.044 4.044 0 0 1-1.334 1.495 6.126 6.126 0 0 1-1.932.851c-.72.169-1.487.253-2.3.253-.813 0-1.625-.084-2.438-.253a13.398 13.398 0 0 1-2.346-.713 11.235 11.235 0 0 1-2.07-1.15l1.403-2.737c.138.138.383.322.736.552.353.215.782.437 1.288.667a11.56 11.56 0 0 0 1.656.552 7.29 7.29 0 0 0 1.817.23c.859 0 1.51-.146 1.955-.437.445-.291.667-.705.667-1.242 0-.49-.176-.874-.529-1.15-.353-.276-.843-.514-1.472-.713a46.697 46.697 0 0 0-2.231-.69c-1.027-.291-1.886-.613-2.576-.966-.69-.368-1.204-.828-1.541-1.38-.337-.552-.506-1.242-.506-2.07 0-1.12.26-2.055.782-2.806.537-.767 1.257-1.342 2.162-1.725.905-.399 1.909-.598 3.013-.598.767 0 1.487.084 2.162.253.69.169 1.334.391 1.932.667.598.276 1.135.575 1.61.897l-1.403 2.576ZM42.509 97V84.948h3.081V97h-3.082Zm0-13.731V80.21h3.081v3.059h-3.082Zm11.45 13.961c-.965 0-1.84-.161-2.621-.483a6.157 6.157 0 0 1-2.001-1.357 6.474 6.474 0 0 1-1.288-1.978 6.494 6.494 0 0 1-.437-2.369c0-1.15.253-2.2.759-3.151a5.938 5.938 0 0 1 2.208-2.277c.966-.583 2.1-.874 3.404-.874 1.318 0 2.445.291 3.38.874a5.656 5.656 0 0 1 2.14 2.277 6.28 6.28 0 0 1 .759 3.036c0 .184-.008.376-.023.575-.016.184-.03.337-.046.46h-9.315c.061.613.237 1.15.529 1.61.306.46.69.813 1.15 1.058.475.23.981.345 1.518.345.613 0 1.188-.146 1.725-.437.552-.307.927-.705 1.127-1.196l2.645.736a4.948 4.948 0 0 1-1.265 1.633 6.05 6.05 0 0 1-1.91 1.127c-.735.26-1.548.391-2.437.391Zm-3.15-7.222h6.302c-.062-.613-.238-1.142-.53-1.587a2.813 2.813 0 0 0-1.103-1.058 3.07 3.07 0 0 0-1.541-.391c-.552 0-1.058.13-1.518.391a3.032 3.032 0 0 0-1.104 1.058c-.276.445-.445.974-.506 1.587Zm18.44 6.371c-.26.107-.575.23-.943.368a6.814 6.814 0 0 1-1.196.322 5.813 5.813 0 0 1-1.265.138 4.01 4.01 0 0 1-1.564-.299 2.559 2.559 0 0 1-1.15-.943c-.276-.445-.414-1.02-.414-1.725v-6.923H61.13v-2.369h1.587v-3.91h3.082v3.91h2.53v2.369h-2.53v5.888c.015.414.13.713.345.897.215.184.483.276.805.276.322 0 .636-.054.943-.161.307-.107.552-.2.736-.276l.621 2.438Zm7.06.851c-.967 0-1.84-.161-2.623-.483a6.157 6.157 0 0 1-2-1.357 6.476 6.476 0 0 1-1.289-1.978 6.496 6.496 0 0 1-.437-2.369c0-1.15.253-2.2.76-3.151a5.938 5.938 0 0 1 2.207-2.277c.966-.583 2.101-.874 3.404-.874 1.32 0 2.446.291 3.381.874a5.656 5.656 0 0 1 2.14 2.277 6.28 6.28 0 0 1 .758 3.036c0 .184-.007.376-.023.575-.015.184-.03.337-.046.46h-9.315c.062.613.238 1.15.53 1.61.306.46.69.813 1.15 1.058.475.23.98.345 1.517.345a3.56 3.56 0 0 0 1.725-.437c.552-.307.928-.705 1.127-1.196l2.645.736a4.947 4.947 0 0 1-1.265 1.633 6.05 6.05 0 0 1-1.909 1.127c-.736.26-1.548.391-2.438.391Zm-3.152-7.222h6.302c-.06-.613-.237-1.142-.529-1.587a2.813 2.813 0 0 0-1.104-1.058 3.07 3.07 0 0 0-1.54-.391c-.553 0-1.059.13-1.519.391a3.032 3.032 0 0 0-1.104 1.058c-.276.445-.444.974-.506 1.587ZM35.625 129.23c-.935 0-1.763-.207-2.484-.621a4.581 4.581 0 0 1-1.656-1.725v7.015h-3.082v-16.951h2.691v2.07a5.017 5.017 0 0 1 1.748-1.656c.705-.414 1.51-.621 2.415-.621.813 0 1.556.161 2.231.483.69.322 1.288.774 1.794 1.357a6.097 6.097 0 0 1 1.173 1.978 6.44 6.44 0 0 1 .437 2.392c0 1.165-.23 2.223-.69 3.174-.445.951-1.066 1.71-1.863 2.277-.782.552-1.687.828-2.714.828Zm-1.035-2.622c.475 0 .905-.1 1.288-.299.383-.199.713-.468.989-.805.291-.353.506-.744.644-1.173.153-.445.23-.905.23-1.38 0-.506-.084-.974-.253-1.403a3.153 3.153 0 0 0-.69-1.127 3.21 3.21 0 0 0-1.081-.782 3.09 3.09 0 0 0-1.311-.276c-.291 0-.59.054-.897.161-.291.092-.575.23-.851.414a3.711 3.711 0 0 0-.736.644c-.2.245-.345.514-.437.805v2.829c.184.445.43.851.736 1.219.322.368.69.659 1.104.874.414.199.836.299 1.265.299ZM42.98 129v-12.052h3.082V129H42.98Zm0-13.731v-3.059h3.082v3.059H42.98Zm5.84-3.059h3.08v12.926c0 .552.092.928.276 1.127.184.184.438.276.76.276.245 0 .498-.031.759-.092.26-.061.49-.138.69-.23l.413 2.346a5.96 5.96 0 0 1-1.449.46 7.933 7.933 0 0 1-1.495.161c-.965 0-1.717-.253-2.253-.759-.522-.521-.782-1.257-.782-2.208V112.21Zm6.494 13.225c0-.782.215-1.464.644-2.047.445-.598 1.058-1.058 1.84-1.38.782-.322 1.68-.483 2.691-.483.506 0 1.02.038 1.541.115a5.27 5.27 0 0 1 1.357.368v-.644c0-.767-.23-1.357-.69-1.771-.444-.414-1.111-.621-2-.621-.66 0-1.289.115-1.887.345a9.518 9.518 0 0 0-1.886 1.012l-.989-2.024a9.895 9.895 0 0 1 2.438-1.173 8.895 8.895 0 0 1 2.645-.391c1.718 0 3.052.429 4.002 1.288.966.859 1.45 2.085 1.45 3.68v3.841c0 .322.053.552.16.69.123.138.315.222.575.253V129c-.276.046-.529.084-.759.115a3.94 3.94 0 0 1-.552.046c-.613 0-1.08-.138-1.403-.414a1.78 1.78 0 0 1-.575-1.012l-.069-.621a5.266 5.266 0 0 1-1.955 1.564 5.564 5.564 0 0 1-2.392.552c-.797 0-1.518-.161-2.162-.483a3.997 3.997 0 0 1-1.495-1.357 3.701 3.701 0 0 1-.529-1.955Zm7.498.621c.169-.184.307-.368.414-.552.108-.184.161-.353.161-.506v-1.219a5.752 5.752 0 0 0-1.196-.345 5.827 5.827 0 0 0-1.219-.138c-.797 0-1.456.176-1.978.529-.506.337-.759.79-.759 1.357 0 .307.085.598.253.874.169.276.414.498.736.667.322.169.706.253 1.15.253.46 0 .913-.084 1.357-.253.445-.184.805-.406 1.081-.667Zm13.713-6.44c-.935 0-1.77.184-2.507.552-.736.353-1.265.866-1.587 1.541V129H69.35v-12.052h2.83v2.576c.429-.828.973-1.48 1.632-1.955.66-.475 1.357-.736 2.093-.782h.391c.092 0 .169.008.23.023v2.806Zm7.15 9.614c-.965 0-1.84-.161-2.621-.483a6.157 6.157 0 0 1-2.001-1.357 6.48 6.48 0 0 1-1.288-1.978 6.495 6.495 0 0 1-.437-2.369c0-1.15.253-2.2.759-3.151a5.934 5.934 0 0 1 2.208-2.277c.966-.583 2.1-.874 3.404-.874 1.318 0 2.445.291 3.38.874a5.653 5.653 0 0 1 2.14 2.277c.506.935.759 1.947.759 3.036 0 .184-.008.376-.023.575-.016.184-.031.337-.046.46h-9.315c.06.613.237 1.15.529 1.61.306.46.69.813 1.15 1.058.475.23.98.345 1.518.345.613 0 1.188-.146 1.725-.437.552-.307.927-.705 1.127-1.196l2.645.736a4.947 4.947 0 0 1-1.265 1.633 6.055 6.055 0 0 1-1.91 1.127c-.735.261-1.548.391-2.437.391Zm-3.15-7.222h6.302c-.062-.613-.238-1.142-.53-1.587a2.811 2.811 0 0 0-1.103-1.058 3.067 3.067 0 0 0-1.541-.391c-.552 0-1.058.13-1.518.391a3.03 3.03 0 0 0-1.104 1.058c-.276.445-.445.974-.506 1.587Zm15.77 7.222a8.62 8.62 0 0 1-2.945-.506 6.62 6.62 0 0 1-2.415-1.495l1.104-2.001c.72.583 1.426 1.012 2.116 1.288.706.276 1.38.414 2.024.414.598 0 1.073-.107 1.426-.322.368-.215.552-.537.552-.966 0-.291-.1-.514-.299-.667-.2-.169-.49-.314-.874-.437-.368-.123-.82-.261-1.357-.414a21.02 21.02 0 0 1-2.23-.851c-.599-.276-1.051-.621-1.358-1.035-.291-.429-.437-.974-.437-1.633 0-.797.2-1.48.598-2.047.414-.583.981-1.035 1.702-1.357.736-.322 1.595-.483 2.576-.483.859 0 1.672.138 2.438.414a5.67 5.67 0 0 1 2.093 1.288l-1.242 1.955c-.613-.475-1.196-.82-1.748-1.035a4.33 4.33 0 0 0-1.679-.345c-.322 0-.629.038-.92.115a1.54 1.54 0 0 0-.69.391c-.169.169-.253.414-.253.736 0 .291.077.521.23.69.169.153.414.291.736.414.338.123.744.261 1.22.414.965.276 1.778.56 2.437.851.675.291 1.181.652 1.518 1.081.337.414.506.989.506 1.725 0 1.196-.437 2.131-1.31 2.806-.875.675-2.048 1.012-3.52 1.012Z" fill="#1C1111"/></svg>