<svg width="199" height="511" fill="none" xmlns="http://www.w3.org/2000/svg"><path d="M79.5 307.799c4 8.021 13.333 10.283 17.5 10.412-8.75 1.928-12 3.663-17.5 10.411C74 335.37 74 348.481 72.75 356c0-10.99-2-18.702-7-27.378-4-6.941-12.833-9.833-16.75-10.411 4.208-.707 13.775-4.203 18.375-12.532s5.5-19.923 5.375-24.679c.583 5.591 2.75 18.779 6.75 26.799Zm-35.02-59.85c5.833 11.656 19.444 14.944 25.52 15.131-12.76 2.802-17.5 5.324-25.52 15.131-8.022 9.807-8.022 28.861-9.845 39.789 0-15.972-2.916-27.18-10.208-39.789C18.594 268.123 5.712 263.92 0 263.08c6.137-1.028 20.088-6.109 26.797-18.214 6.708-12.105 8.02-28.954 7.838-35.866.851 8.126 4.01 27.292 9.844 38.949Zm57.395-88.581c3 6.095 10 7.815 13.125 7.912-6.562 1.466-9 2.784-13.125 7.913-4.125 5.128-4.125 15.092-5.063 20.807 0-8.352-1.5-14.213-5.25-20.807-3-5.275-9.624-7.473-12.562-7.913 3.156-.537 10.331-3.194 13.781-9.524 3.45-6.33 4.125-15.142 4.031-18.756.438 4.249 2.063 14.272 5.063 20.368Z" fill="#FFE0A5"/><path d="M172.079 0c.844 8.043 2.502 24.48 2.375 25.887 4.204-1.257 24.024-9.775 24.536-10.06l.009-.007c.003 0 0 .002-.009.007-6.023 4.797-20.103 14.853-21.369 15.013 2.154 1.406 15.149 11.452 21.378 16.3-6.968-3.069-19.266-8.843-24.545-11.346L172.079 62c-1.109-7.99-3.294-24.416-3.167-26.206-1.774 1.917-16.68 8.362-23.912 11.345 6.915-5.433 20.84-16.299 21.22-16.299.475 0-7.601-4.314-21.22-15.02 4.561.767 18.158 7.457 24.387 10.706L172.079 0Z" fill="#E1CCA2"/><path d="M98.636 406c1.454 13.621 4.309 41.459 4.09 43.84 7.241-2.129 41.375-16.554 42.257-17.036l.015-.013c.005 0 0 .004-.015.013-10.373 8.123-34.621 25.155-36.802 25.425 3.709 2.382 26.09 19.395 36.817 27.603-11.999-5.195-33.181-14.974-42.272-19.213L98.636 511c-1.91-13.531-5.673-41.351-5.455-44.381-3.054 3.247-28.727 14.162-41.181 19.213 11.909-9.201 35.89-27.603 36.545-27.603.818 0-13.09-7.306-36.545-25.438 7.854 1.299 31.272 12.629 42 18.132L98.635 406Z" fill="#FFE0A5"/></svg>