<svg width="103" height="144" fill="none" xmlns="http://www.w3.org/2000/svg"><path d="M44.48 73.949C50.312 85.605 63.923 88.893 70 89.079c-12.76 2.803-17.5 5.325-25.52 15.132-8.022 9.807-8.022 28.861-9.845 39.789 0-15.972-2.916-27.18-10.208-39.789C18.594 94.123 5.712 89.921 0 89.08c6.137-1.028 20.088-6.109 26.797-18.214 6.708-12.105 8.02-28.954 7.838-35.866.851 8.126 4.01 27.292 9.844 38.949Zm42.114-48.936c3.75 7.486 12.5 9.597 16.406 9.717-8.203 1.8-11.25 3.42-16.406 9.717-5.156 6.298-5.156 18.535-6.328 25.553 0-10.257-1.875-17.455-6.563-25.553C69.953 37.97 61.672 35.27 58 34.73c3.945-.66 12.914-3.923 17.227-11.697C79.539 15.26 80.383 4.44 80.266 0c.546 5.219 2.578 17.527 6.328 25.013Z" fill="#FFC961"/></svg>