<svg width="197" height="572" fill="none" xmlns="http://www.w3.org/2000/svg"><path d="M135.479 186.949c5.833 11.656 19.445 14.944 25.521 15.131-12.76 2.802-17.5 5.324-25.521 15.131s-8.021 28.861-9.844 39.789c0-15.972-2.916-27.18-10.208-39.789C109.594 207.123 96.712 202.92 91 202.08c6.137-1.028 20.089-6.109 26.797-18.214 6.708-12.105 8.021-28.954 7.838-35.866.851 8.126 4.011 27.292 9.844 38.949Zm8.021 201.85c4 8.021 13.333 10.283 17.5 10.412-8.75 1.928-12 3.663-17.5 10.411-5.5 6.748-5.5 19.859-6.75 27.378 0-10.99-2-18.702-7-27.378-4-6.941-12.833-9.833-16.75-10.411 4.208-.707 13.775-4.203 18.375-12.532s5.5-19.923 5.375-24.679c.583 5.591 2.75 18.779 6.75 26.799Zm40.375-34.431c3 6.095 10 7.815 13.125 7.912-6.562 1.466-9 2.784-13.125 7.913-4.125 5.128-4.125 15.092-5.063 20.807 0-8.352-1.5-14.213-5.25-20.807-3-5.275-9.624-7.473-12.562-7.913 3.156-.537 10.331-3.194 13.781-9.524 3.45-6.33 4.125-15.142 4.031-18.756.438 4.249 2.063 14.272 5.063 20.368Z" fill="#FFE0A5"/><path d="M108.583 507c.892 8.432 2.641 25.665 2.507 27.139 4.438-1.318 25.359-10.248 25.899-10.546l.01-.008c.003 0 0 .003-.01.008-6.357 5.029-21.219 15.572-22.556 15.739 2.274 1.475 15.991 12.006 22.566 17.088-7.355-3.216-20.337-9.27-25.909-11.894L108.583 572c-1.17-8.376-3.477-25.598-3.343-27.474-1.872 2.01-17.607 8.767-25.24 11.894 7.299-5.696 21.997-17.088 22.398-17.088.502 0-8.023-4.523-22.398-15.747 4.814.804 19.167 7.818 25.741 11.224L108.583 507ZM40.618 0c1.267 11.935 3.753 36.326 3.563 38.412 6.306-1.865 36.036-14.504 36.804-14.927l.014-.01c.004 0-.001.003-.014.01-9.034 7.118-30.154 22.04-32.053 22.278 3.23 2.087 22.724 16.993 32.067 24.185-10.452-4.552-28.9-13.12-36.818-16.835L40.618 92c-1.663-11.856-4.94-36.23-4.75-38.887C33.207 55.96 10.847 65.523 0 69.948c10.372-8.061 31.26-24.185 31.83-24.185.712 0-11.402-6.402-31.83-22.289 6.84 1.138 27.237 11.065 36.58 15.887L40.618 0Z" fill="#E1CCA2"/></svg>