<svg width="97" height="156" fill="none" xmlns="http://www.w3.org/2000/svg"><path d="M71.48 38.949C77.311 50.605 90.923 53.893 97 54.079c-12.76 2.803-17.5 5.325-25.52 15.132-8.022 9.807-8.022 28.861-9.845 39.789 0-15.972-2.916-27.18-10.208-39.79C45.594 59.124 32.712 54.92 27 54.08c6.137-1.028 20.089-6.109 26.797-18.214C60.505 23.761 61.817 6.912 61.635 0c.851 8.126 4.01 27.292 9.844 38.949Zm-42.886 72.064c3.75 7.486 12.5 9.597 16.406 9.717-8.203 1.8-11.25 3.419-16.406 9.717-5.157 6.298-5.157 18.535-6.328 25.553 0-10.257-1.875-17.455-6.563-25.553-3.75-6.478-12.031-9.177-15.703-9.717 3.945-.66 12.914-3.923 17.227-11.697 4.312-7.773 5.156-18.594 5.039-23.033.547 5.219 2.578 17.527 6.328 25.013Z" fill="#FFC961"/></svg>