<svg width="1426" height="424" fill="none" xmlns="http://www.w3.org/2000/svg"><path d="M40.618 332c1.267 11.935 3.753 36.326 3.563 38.412 6.306-1.865 36.036-14.504 36.804-14.927l.014-.011c.004 0-.001.004-.014.011-9.034 7.118-30.154 22.041-32.053 22.278 3.23 2.086 22.724 16.993 32.067 24.185-10.452-4.552-28.9-13.12-36.818-16.835L40.618 424c-1.663-11.856-4.94-36.231-4.75-38.887-2.66 2.846-25.02 12.409-35.868 16.835 10.372-8.061 31.26-24.185 31.83-24.185.712 0-11.402-6.402-31.83-22.289 6.84 1.138 27.237 11.066 36.58 15.887L40.618 332ZM1339.75 0c2.71 25.556 8.02 77.784 7.61 82.253 13.47-3.994 76.97-31.06 78.61-31.964l.03-.023c.01 0 0 .007-.03.023-19.3 15.24-64.4 47.196-68.46 47.703 6.9 4.468 48.53 36.388 68.49 51.789-22.33-9.749-61.73-28.095-78.64-36.049L1339.75 197c-3.55-25.387-10.55-77.581-10.14-83.268-5.69 6.093-53.44 26.571-76.61 36.049 22.15-17.263 66.76-51.789 67.98-51.789 1.52 0-24.35-13.709-67.98-47.727 14.61 2.438 58.17 23.695 78.13 34.019L1339.75 0Z" fill="#FFC961"/></svg>