<svg width="80" height="80" fill="none" xmlns="http://www.w3.org/2000/svg"><g clip-path="url(#a)"><path d="M40 80c22.091 0 40-17.909 40-40S62.091 0 40 0 0 17.909 0 40s17.909 40 40 40Z" fill="#25D366"/><path d="M57.716 22.18c-4.701-4.706-10.952-7.298-17.612-7.301-13.72 0-24.89 11.167-24.895 24.894A24.84 24.84 0 0 0 18.53 52.22L15 65.12l13.197-3.461a24.898 24.898 0 0 0 11.897 3.03h.011c13.721 0 24.89-11.17 24.895-24.896a24.746 24.746 0 0 0-7.284-17.612ZM40.105 60.484h-.008A20.665 20.665 0 0 1 29.564 57.6l-.756-.45-7.831 2.055 2.09-7.635-.493-.785a20.624 20.624 0 0 1-3.163-11.012c.003-11.408 9.287-20.69 20.7-20.69a20.547 20.547 0 0 1 14.63 6.069 20.57 20.57 0 0 1 6.055 14.639c-.004 11.41-9.287 20.692-20.691 20.692Zm11.35-15.497c-.622-.311-3.68-1.815-4.251-2.024-.57-.208-.984-.31-1.399.312-.415.622-1.607 2.024-1.97 2.44-.363.414-.726.467-1.348.155-.623-.312-2.626-.968-5-3.088-1.85-1.648-3.1-3.687-3.462-4.31-.362-.622-.039-.958.273-1.268.28-.28.623-.727.933-1.09.31-.364.415-.623.622-1.038.208-.415.105-.778-.052-1.09-.156-.311-1.4-3.373-1.917-4.619-.506-1.213-1.018-1.048-1.4-1.067a25.677 25.677 0 0 0-1.192-.023c-.415 0-1.089.156-1.659.78-.57.622-2.177 2.126-2.177 5.19 0 3.06 2.229 6.02 2.54 6.433.312.415 4.387 6.7 10.627 9.394a36.218 36.218 0 0 0 3.546 1.31c1.49.475 2.846.406 3.919.246 1.194-.178 3.68-1.504 4.199-2.957.518-1.453.518-2.697.361-2.957-.157-.261-.572-.417-1.193-.729Z" fill="#fff"/></g><defs><clipPath id="a"><path fill="#fff" d="M0 0h80v80H0z"/></clipPath></defs></svg>