<svg width="34" height="34" fill="none" xmlns="http://www.w3.org/2000/svg"><path d="M16.314 2.85C8.792 3.206 2.857 9.425 2.88 16.9c.004 2.2.53 4.369 1.537 6.325l-1.499 7.227a.548.548 0 0 0 .666.641l7.131-1.677a14.14 14.14 0 0 0 6.07 1.462c7.688.118 14.097-5.943 14.336-13.572.258-8.18-6.54-14.848-14.807-14.457v.002Zm8.51 21.77a11.027 11.027 0 0 1-7.82 3.216 11.007 11.007 0 0 1-4.921-1.144l-.994-.492-4.373 1.029.921-4.436-.49-.952a10.795 10.795 0 0 1-1.201-4.982 10.87 10.87 0 0 1 3.238-7.764 11.12 11.12 0 0 1 7.82-3.217c2.955 0 5.732 1.142 7.82 3.216a10.87 10.87 0 0 1 3.24 7.763c0 2.907-1.169 5.71-3.24 7.765v-.001Z" fill="#333"/><path d="m23.86 19.897-2.736-.779a1.023 1.023 0 0 0-1.01.264l-.669.677a1.001 1.001 0 0 1-1.083.226c-1.294-.52-4.017-2.922-4.712-4.125a.983.983 0 0 1 .08-1.096l.583-.751a1.005 1.005 0 0 0 .126-1.029l-1.15-2.584a1.024 1.024 0 0 0-1.594-.362c-.764.641-1.67 1.615-1.78 2.696-.194 1.902.628 4.3 3.736 7.182 3.591 3.328 6.469 3.768 8.34 3.316 1.063-.255 1.913-1.279 2.447-2.116a1.011 1.011 0 0 0-.578-1.519Z" fill="#333"/></svg>